<?xml version="1.0" standalone="no"?>
<!DOCTYPE svg PUBLIC "-//W3C//DTD SVG 20010904//EN"
 "http://www.w3.org/TR/2001/REC-SVG-20010904/DTD/svg10.dtd">
<svg version="1.0" xmlns="http://www.w3.org/2000/svg"
 width="2048.000000pt" height="2048.000000pt" viewBox="0 0 2048.000000 2048.000000"
 preserveAspectRatio="xMidYMid meet">

<g transform="translate(0.000000,2048.000000) scale(0.100000,-0.100000)"
fill="#000000" stroke="none">
<path d="M16793 19591 c-39 -11 -86 -27 -105 -37 -78 -40 -178 -116 -244 -186
-126 -133 -170 -266 -138 -411 9 -40 16 -79 15 -87 -25 -344 -32 -369 -156
-585 -24 -41 -30 -63 -33 -136 -5 -98 10 -157 60 -247 17 -29 29 -55 27 -56
-2 -2 -29 -19 -59 -39 -155 -101 -302 -289 -512 -657 -114 -198 -224 -380
-243 -399 -12 -12 -22 -12 -73 3 -33 9 -261 56 -508 105 -534 107 -788 161
-944 202 -269 70 -310 74 -310 30 0 -10 33 -119 74 -242 108 -326 138 -427
205 -694 33 -132 68 -269 77 -305 20 -77 34 -96 80 -104 19 -4 34 -9 34 -10 0
-2 -16 -27 -35 -56 -141 -209 -42 -481 241 -663 263 -169 787 -381 1194 -482
58 -15 109 -30 113 -34 4 -5 -3 -70 -17 -145 -48 -256 -85 -661 -108 -1161
-14 -307 -18 -1500 -6 -1935 7 -251 6 -264 -10 -240 -9 14 -44 53 -76 88 -95
100 -265 172 -406 172 -121 0 -284 -62 -377 -144 -119 -106 -196 -296 -178
-446 8 -74 41 -192 66 -241 45 -90 49 -82 -54 -146 -51 -31 -195 -114 -322
-184 -350 -194 -425 -239 -425 -253 0 -7 80 -68 178 -136 97 -68 209 -146 249
-174 39 -28 138 -96 219 -151 242 -164 270 -187 266 -213 -4 -26 22 -40 43
-22 12 10 35 -3 130 -72 64 -45 148 -106 188 -134 40 -28 135 -95 212 -149
206 -146 690 -513 1000 -759 77 -62 155 -123 174 -136 l34 -24 36 20 c80 45
439 253 486 281 598 362 862 534 1150 748 83 62 162 120 177 129 22 14 86 23
307 42 288 24 528 57 735 101 239 49 651 202 843 311 101 57 113 66 113 79 0
13 2 12 -225 173 -88 63 -230 167 -315 230 -85 64 -218 161 -295 215 -383 270
-570 405 -781 565 -226 171 -669 493 -729 529 -30 19 -30 19 -195 -30 -177
-52 -200 -56 -200 -36 0 6 12 125 26 262 37 362 40 526 18 795 -21 258 -23
540 -5 685 19 147 100 594 176 960 76 371 108 555 130 749 13 120 18 141 37
154 20 15 21 19 14 221 -3 113 -9 220 -12 237 -6 30 -3 33 50 63 82 47 173
152 229 263 85 169 139 444 168 853 11 159 7 723 -6 796 -7 35 -6 36 37 48
131 40 235 128 296 250 37 74 37 76 37 200 0 124 -1 127 -36 201 -26 53 -62
104 -127 175 -50 55 -103 121 -117 148 -15 26 -37 98 -51 163 -28 134 -57 196
-113 247 -50 45 -87 64 -230 116 -147 54 -159 61 -208 114 -52 56 -53 59 -102
205 -23 68 -53 144 -68 169 -64 110 -161 165 -294 167 -70 1 -79 4 -112 33
-83 73 -248 100 -384 64z m284 -56 c32 -14 70 -38 86 -53 25 -24 35 -26 115
-27 73 -1 95 -5 138 -27 91 -48 139 -115 189 -268 79 -241 118 -281 349 -363
218 -78 279 -144 311 -337 20 -121 51 -182 145 -287 153 -171 192 -250 192
-386 -1 -141 -75 -277 -192 -351 -33 -22 -141 -66 -160 -66 -4 0 -29 31 -55
70 -84 127 -167 167 -522 253 -183 45 -274 88 -342 163 -115 126 -177 335
-156 529 6 63 8 66 45 85 109 56 140 186 59 254 -34 29 -95 35 -129 14 -16
-10 -23 -10 -35 3 -29 29 -65 150 -65 222 0 70 -12 86 -41 50 -8 -9 -50 -33
-94 -54 -139 -64 -300 -99 -455 -99 l-81 0 -17 38 c-12 26 -17 66 -17 137 0
91 3 106 31 165 68 144 270 309 434 355 81 22 193 14 267 -20z m-31 -740 c13
-39 33 -85 45 -104 l20 -33 23 21 c34 32 86 38 116 13 21 -17 25 -29 25 -70 0
-60 -26 -94 -92 -123 -40 -17 -42 -19 -49 -75 -9 -76 2 -244 21 -319 22 -87
88 -215 141 -274 l46 -51 -21 -34 c-84 -136 -286 -214 -405 -156 -29 14 -53
34 -63 54 -22 42 -19 142 7 231 11 39 23 101 27 138 l6 69 51 22 c66 30 166
111 166 136 0 35 -19 31 -73 -18 -136 -123 -286 -145 -413 -59 -70 46 -118
122 -159 249 -42 131 -44 148 -10 148 47 0 64 92 18 98 -17 3 -24 -3 -29 -25
l-7 -28 -7 26 c-4 14 -10 59 -14 100 l-7 75 123 12 c151 14 289 50 388 100
l75 38 13 -46 c7 -25 24 -77 38 -115z m-662 -165 c15 -165 27 -215 78 -330 63
-139 166 -215 306 -227 56 -5 72 -9 73 -22 2 -35 -3 -86 -9 -93 -4 -3 -63 -11
-132 -18 -135 -12 -262 -32 -350 -54 -30 -8 -61 -16 -69 -18 -39 -9 -111 157
-111 256 0 83 12 120 64 199 55 84 93 195 107 312 19 160 22 180 25 170 2 -5
10 -84 18 -175z m432 -747 c-31 -99 -32 -196 -3 -253 41 -83 145 -123 261
-100 126 25 220 93 303 219 1 2 24 -7 50 -19 77 -36 146 -58 338 -106 99 -24
208 -58 241 -74 115 -56 190 -157 218 -292 12 -60 16 -142 16 -365 0 -329 -10
-495 -46 -743 -33 -235 -64 -354 -124 -479 -42 -85 -63 -117 -123 -176 -67
-67 -79 -75 -157 -100 -155 -50 -385 -35 -640 42 -146 44 -481 185 -521 220
-18 15 -16 31 16 128 9 28 19 100 22 163 l6 112 67 0 c60 0 600 -52 691 -66
30 -5 39 -3 48 13 13 25 53 242 91 503 17 113 42 272 55 355 30 179 29 165 6
165 -24 0 -22 8 -71 -321 -47 -322 -106 -660 -117 -669 -5 -4 -138 8 -298 26
-195 23 -326 33 -400 31 l-110 -2 -3 -42 c-2 -29 -8 -43 -17 -43 -14 0 -113
33 -270 91 -77 28 -106 33 -200 36 -74 3 -127 -1 -162 -10 -29 -8 -53 -11 -53
-7 0 4 9 33 20 64 10 31 38 139 62 239 l43 182 0 230 c0 269 1 272 110 435 62
93 71 120 42 120 -17 0 -133 -178 -161 -247 -37 -89 -48 -166 -36 -253 17
-133 12 -206 -30 -412 -47 -232 -98 -378 -134 -378 -52 0 -238 45 -246 60 -5
9 -18 54 -30 100 -12 47 -34 128 -50 180 -15 52 -40 136 -55 185 l-27 91 59
94 c33 52 105 176 162 275 243 424 418 644 569 715 100 48 357 97 515 99 70 1
78 -1 73 -16z m-2902 -872 c154 -38 466 -106 691 -151 643 -128 699 -140 711
-153 14 -15 34 -77 73 -222 16 -60 42 -157 59 -215 17 -58 53 -190 81 -295 28
-104 73 -275 101 -379 47 -179 58 -236 44 -236 -10 0 -1168 295 -1433 364
-134 35 -247 68 -251 73 -9 8 -90 297 -90 318 0 30 -120 449 -195 682 -84 258
-91 283 -79 283 4 0 133 -31 288 -69z m1520 -420 c14 -42 62 -212 106 -379 44
-166 85 -313 90 -326 14 -38 120 -466 120 -487 0 -36 -16 -19 -33 34 -14 44
-110 401 -232 857 -18 69 -49 181 -69 250 -20 68 -36 133 -36 145 1 19 1 19
15 1 8 -10 26 -53 39 -95z m380 -532 c3 -3 -28 -38 -69 -79 -72 -72 -74 -73
-83 -49 -17 45 -50 168 -46 172 5 4 191 -37 198 -44z m431 27 c28 -8 126 -41
219 -73 l168 -58 -6 -55 c-7 -73 -24 -118 -48 -131 -29 -15 -158 -12 -278 7
-105 17 -105 16 -152 -6 -50 -23 -92 -57 -100 -80 -3 -11 -10 -10 -31 7 l-27
21 40 35 c21 20 57 48 80 63 44 30 52 54 17 54 -32 0 -104 -48 -155 -103 -35
-39 -47 -46 -68 -41 -24 6 -24 7 -8 33 30 47 68 83 122 113 53 30 63 44 38 54
-33 13 -206 -105 -206 -140 0 -7 -8 -20 -18 -29 -14 -13 -21 -14 -30 -5 -21
21 -13 51 23 97 43 54 82 83 140 106 74 28 54 68 -21 41 -55 -19 -179 -98
-179 -114 0 -7 -11 -18 -24 -25 -14 -7 -26 -18 -29 -25 -4 -12 0 -12 19 -2 24
13 24 13 5 -9 -27 -29 -33 -27 -47 19 -14 47 -9 56 21 40 29 -16 50 -6 43 20
-11 40 143 159 246 190 43 14 193 11 246 -4z m-496 -338 c1 -5 -8 -8 -19 -8
-13 0 -20 7 -20 19 0 38 36 27 39 -11z m595 -19 c50 -6 102 -13 116 -16 24 -5
23 -6 -15 -25 -22 -12 -98 -44 -170 -73 -161 -65 -265 -110 -374 -164 -95 -46
-108 -49 -114 -23 -17 62 -17 73 0 79 10 3 72 31 138 63 66 31 130 60 143 64
13 4 22 15 22 27 0 11 13 34 29 50 34 34 70 37 225 18z m-2138 -40 c60 -17
341 -89 624 -160 283 -71 547 -138 585 -149 39 -11 132 -33 207 -50 162 -36
238 -69 570 -244 251 -132 277 -147 441 -250 84 -53 107 -72 102 -85 -4 -9
-29 -79 -55 -157 -26 -77 -58 -160 -71 -183 l-24 -42 -60 6 c-91 9 -507 73
-620 95 -586 112 -1131 299 -1559 534 -295 162 -427 398 -336 602 18 42 69
114 81 114 3 0 55 -14 115 -31z m1592 -26 c2 -25 -1 -33 -18 -38 -38 -12 -66
44 -32 64 29 18 47 8 50 -26z m949 -110 c182 -88 409 -170 548 -198 114 -23
275 -33 379 -23 49 5 93 5 97 1 13 -14 29 -184 29 -310 0 -122 0 -123 -27
-140 -35 -23 -197 -30 -300 -13 -84 13 -265 64 -513 143 -96 30 -210 63 -253
71 -119 25 -323 39 -393 27 -57 -10 -62 -9 -124 23 -36 19 -141 73 -235 120
-93 48 -171 89 -173 90 -9 9 275 139 531 242 88 36 180 75 206 88 l46 24 3
-30 c3 -28 13 -35 179 -115z m-868 123 c8 -10 8 -16 -3 -25 -11 -9 -17 -6 -30
14 -16 24 -15 25 3 25 10 0 24 -6 30 -14z m106 -26 c7 -11 -84 -40 -104 -32
-9 3 -2 11 20 23 38 20 75 24 84 9z m-135 -61 c0 -5 -18 -18 -40 -29 -40 -20
-40 -20 -40 -1 0 12 11 26 27 35 27 14 53 12 53 -5z m850 -544 c46 -9 151 -39
232 -67 82 -27 208 -67 281 -87 l132 -37 3 -88 3 -88 -73 7 c-123 11 -309 35
-393 52 -65 12 -85 21 -105 44 -27 31 -136 101 -327 211 -68 38 -123 72 -123
75 0 11 288 -6 370 -22z m771 -215 c64 -13 201 -16 247 -5 l32 7 0 -54 c0 -29
-5 -92 -11 -138 -10 -87 -95 -550 -102 -556 -2 -2 -15 38 -29 89 -42 149 -85
256 -143 361 -30 55 -52 103 -49 108 3 5 -1 17 -9 26 -10 11 -16 45 -19 95 -4
87 -8 84 83 67z m-632 -125 c70 -18 322 -55 375 -55 31 0 45 -7 70 -33 85 -91
240 -502 247 -657 3 -62 -17 -85 -65 -76 -40 8 -131 66 -200 127 l-59 53 6 61
c3 34 14 81 23 105 14 35 15 43 3 50 -31 20 -69 -50 -69 -127 l0 -47 -22 22
c-20 19 -23 33 -23 100 1 42 5 87 9 100 7 18 5 22 -12 22 -27 0 -41 -27 -49
-91 -5 -39 -10 -49 -22 -47 -13 3 -16 17 -16 73 0 39 4 80 8 93 6 16 4 24 -8
28 -27 11 -45 -19 -53 -87 l-7 -64 -22 23 c-28 27 -32 106 -8 153 17 31 13 49
-10 49 -24 0 -45 -44 -50 -106 -3 -42 -8 -58 -17 -55 -7 2 -58 14 -113 28 -55
14 -102 27 -104 29 -2 2 20 70 49 151 30 82 57 158 61 171 10 26 6 26 78 7z
m542 -107 c123 -169 276 -648 218 -684 -17 -10 -26 12 -33 78 -18 151 -106
409 -192 559 -24 42 -44 79 -44 82 0 19 23 2 51 -35z m-1646 -133 c163 -36
480 -91 640 -110 77 -9 150 -19 161 -21 19 -3 22 -12 26 -101 5 -96 5 -100
-49 -273 -30 -96 -99 -305 -153 -465 -106 -311 -143 -439 -160 -550 -5 -38
-14 -214 -20 -390 -5 -176 -16 -378 -25 -450 -15 -131 -75 -461 -121 -675 -14
-63 -34 -160 -45 -215 -11 -55 -36 -166 -55 -247 -41 -172 -15 -157 -219 -133
-199 23 -232 31 -239 61 -10 38 -26 845 -26 1314 0 648 29 1368 71 1745 18
166 63 476 75 518 7 22 8 22 139 -8z m1030 -162 c140 -39 212 -82 354 -213
271 -247 324 -276 426 -231 27 12 49 20 50 19 1 -2 -22 -124 -51 -273 -123
-625 -136 -807 -94 -1335 20 -251 12 -429 -40 -915 -32 -307 -80 -688 -90
-711 -11 -27 -35 -32 -248 -45 -117 -8 -177 -8 -184 -1 -15 15 -93 534 -128
855 -17 155 -40 359 -50 452 -11 94 -31 289 -44 435 -14 146 -30 312 -36 370
-12 122 -36 1591 -26 1615 7 19 20 17 161 -22z m-197 -889 c2 -368 12 -629 33
-844 26 -278 93 -896 125 -1168 20 -167 34 -305 32 -307 -6 -6 -172 -37 -422
-80 -189 -32 -217 -39 -289 -76 -43 -22 -81 -38 -84 -36 -2 3 14 84 36 180 66
282 150 708 176 892 28 193 41 368 50 670 10 338 23 406 153 780 44 127 102
300 128 385 l49 155 6 -86 c3 -48 7 -257 7 -465z m1418 -2252 c281 -201 314
-225 314 -233 0 -4 -55 -17 -122 -29 -68 -13 -220 -41 -338 -64 l-215 -42 -60
56 c-33 31 -81 70 -107 88 -27 18 -48 41 -48 50 0 30 29 195 35 201 7 7 324
99 346 100 9 1 96 -57 195 -127z m-1146 -573 c0 -28 -29 -45 -118 -70 -42 -12
-43 -12 -80 23 -45 42 -353 321 -405 365 -20 18 -37 36 -37 41 0 5 84 21 186
37 103 15 230 37 283 49 l96 21 37 -220 c21 -121 37 -232 38 -246z m-1757 423
c74 -37 127 -91 163 -167 50 -106 40 -215 -30 -319 -151 -225 -471 -197 -593
52 -39 79 -39 183 -2 262 86 185 286 259 462 172z m1303 -292 c222 -199 227
-205 199 -211 -17 -4 -100 -17 -185 -28 -85 -12 -240 -40 -343 -64 l-189 -44
7 71 c13 131 55 359 70 383 18 27 185 114 202 104 6 -3 114 -98 239 -211z
m1060 178 c62 -47 123 -109 111 -112 -27 -9 -132 -26 -155 -26 -22 0 -23 3
-18 40 3 22 9 58 12 80 3 22 9 40 14 40 4 0 20 -10 36 -22z m1167 -196 c139
-104 298 -222 355 -262 56 -40 105 -76 107 -81 3 -4 -6 -20 -19 -36 -45 -54
-69 -115 -74 -189 -4 -63 0 -83 37 -193 23 -68 40 -125 38 -127 -6 -6 -92 94
-254 297 -144 180 -192 227 -259 255 -53 22 -98 15 -288 -45 -88 -27 -163 -48
-167 -45 -4 2 -50 57 -102 121 -52 65 -145 171 -207 236 -63 66 -109 122 -104
126 5 5 101 25 214 45 113 21 255 48 315 61 61 12 121 23 133 24 16 1 106 -61
275 -187z m-3025 108 c37 -6 116 -14 175 -19 60 -5 111 -12 114 -15 3 -3 -7
-97 -23 -208 l-29 -203 -37 -17 c-46 -22 -386 -126 -438 -134 l-39 -6 65 128
c69 138 124 292 124 346 0 19 5 39 12 46 8 8 8 15 1 24 -6 7 -14 28 -18 47 -6
30 -5 33 10 27 9 -3 47 -11 83 -16z m2099 -137 c117 -120 343 -384 343 -402 0
-21 -187 -8 -270 19 -97 33 -288 177 -369 279 -27 34 -30 43 -24 89 l6 50 91
18 c50 9 100 21 111 25 11 4 21 8 23 8 2 1 42 -38 89 -86z m-377 -339 c0 -142
-4 -253 -10 -264 -11 -20 -141 -124 -235 -187 -181 -121 -381 -229 -499 -269
-107 -37 -110 -36 -104 39 6 67 23 108 86 203 65 98 77 101 165 43 33 -22 52
-28 59 -21 21 21 2 47 -57 77 -33 17 -62 31 -64 33 -3 1 1 8 7 14 10 10 28 8
83 -6 78 -20 99 -14 80 23 -8 14 -21 21 -41 21 -16 0 -41 5 -56 10 -25 10 -26
12 -11 28 14 16 25 17 79 10 113 -14 112 -14 116 6 6 28 -11 38 -73 42 -67 5
-80 11 -65 29 7 9 24 11 50 8 42 -6 54 8 23 26 -16 9 -15 10 7 10 14 0 43 -4
65 -9 41 -9 75 6 61 28 -7 12 -92 42 -119 42 -15 0 -18 5 -13 23 4 12 17 74
29 139 l22 116 115 7 c63 3 144 10 180 14 36 5 77 9 93 10 l27 1 0 -246z m140
120 c194 -182 333 -242 533 -231 86 4 90 4 112 -22 28 -32 144 -185 142 -187
-1 -1 -101 -52 -222 -114 -121 -62 -224 -116 -230 -120 -21 -16 -186 -100
-196 -100 -6 0 -70 57 -144 126 l-133 126 17 31 c13 27 17 77 19 306 l3 273
22 -18 c12 -10 47 -41 77 -70z m-606 4 c-10 -83 -14 -85 -70 -35 -27 25 -46
48 -42 52 10 10 80 34 101 35 16 0 17 -6 11 -52z m-127 -36 c94 -81 97 -85 81
-112 -7 -12 -170 -127 -363 -255 -316 -211 -506 -342 -607 -418 l-36 -28 -5
33 c-10 54 -20 532 -13 556 4 12 13 22 21 22 18 0 65 57 65 80 0 11 9 24 20
30 49 26 367 90 695 139 33 5 63 9 67 10 4 0 38 -25 75 -57z m1849 -113 c49
-30 64 -47 391 -455 l42 -52 -82 -12 c-45 -7 -152 -30 -237 -51 -85 -21 -155
-37 -156 -36 -9 14 -252 338 -313 417 -44 58 -81 108 -81 112 0 9 203 75 285
93 68 15 106 11 151 -16z m732 -101 c86 -62 261 -189 387 -283 127 -94 275
-202 330 -239 55 -38 102 -71 104 -73 9 -7 -36 -33 -165 -96 -286 -142 -626
-248 -968 -303 l-110 -18 -30 38 c-17 21 -90 124 -163 229 -110 160 -130 194
-118 203 15 11 229 59 385 87 66 12 78 11 103 -2 26 -15 29 -15 43 3 20 28 18
46 -20 144 -60 155 -69 216 -42 305 17 57 73 130 93 123 8 -3 85 -56 171 -118z
m-4716 -31 l78 -138 -31 -39 -32 -39 -31 24 c-32 24 -208 218 -214 235 -4 11
129 100 142 97 5 -2 44 -65 88 -140z m1225 109 c-16 -42 -439 -196 -540 -196
-27 0 -27 0 -12 29 20 39 20 39 138 66 103 23 369 107 397 125 17 10 25 -2 17
-24z m907 -133 c-36 -58 -65 -97 -170 -228 -141 -175 -168 -346 -68 -424 56
-44 157 -22 344 77 152 79 277 162 388 254 l82 69 126 -123 c144 -141 146
-118 -16 -205 -58 -31 -172 -94 -253 -140 -130 -73 -150 -82 -169 -72 -64 34
-127 41 -438 49 -269 7 -327 11 -397 29 -101 25 -335 100 -346 111 -13 12 518
390 548 390 7 0 32 -16 55 -35 23 -19 46 -35 51 -35 21 0 6 30 -32 65 -22 20
-39 38 -37 39 4 4 252 164 313 204 28 17 51 32 53 32 1 0 -14 -26 -34 -57z
m-2282 -87 l128 -134 -88 -74 c-127 -107 -348 -278 -359 -278 -14 0 -406 273
-407 284 -1 4 62 43 139 86 77 42 210 116 295 163 85 48 157 87 160 87 3 0 62
-61 132 -134z m1305 -183 c6 -164 8 -301 4 -306 -4 -4 -56 22 -117 58 -60 36
-142 82 -181 103 -53 27 -73 42 -73 57 0 11 -16 65 -35 120 -20 55 -38 108
-41 117 -5 13 3 19 38 28 119 30 288 81 328 99 25 11 50 20 56 20 7 1 14 -100
21 -296z m-468 97 c28 -58 59 -165 50 -175 -3 -2 -34 0 -69 5 -36 6 -91 14
-122 18 l-57 7 70 103 c39 56 76 102 84 102 7 0 27 -27 44 -60z m2020 0 c-39
-109 -562 -444 -716 -457 -41 -3 -63 -1 -77 9 -17 13 -14 15 36 26 147 33 603
297 717 416 43 44 53 45 40 6z m-2554 -46 c26 -36 45 -68 42 -71 -5 -5 -105
47 -134 70 -10 7 -7 16 10 38 12 15 25 28 29 28 3 1 27 -29 53 -65z m3610 -56
c42 -57 120 -168 173 -247 53 -79 143 -209 200 -290 98 -138 102 -146 80 -153
-13 -4 -129 -16 -258 -28 -129 -12 -260 -24 -291 -27 l-57 -6 -103 94 c-57 52
-182 165 -278 252 -97 87 -177 162 -179 166 -3 9 197 120 413 229 66 34 138
72 160 86 22 13 45 25 52 25 6 1 46 -45 88 -101z m-3677 -7 c37 -21 85 -45
106 -52 30 -11 51 -31 93 -86 29 -40 58 -73 63 -73 9 0 68 69 100 119 l15 23
122 -16 c67 -9 129 -19 138 -22 32 -13 31 -14 -380 -269 -104 -65 -230 -145
-279 -177 l-88 -58 -37 29 c-34 26 -226 161 -318 224 -24 16 -43 32 -43 37 0
5 43 42 96 82 124 94 205 159 277 225 32 29 60 53 63 53 3 0 36 -18 72 -39z
m767 -174 c196 -108 277 -159 265 -170 -3 -2 -77 -63 -165 -135 -88 -71 -243
-198 -343 -281 -101 -83 -188 -151 -194 -151 -21 0 -396 275 -388 285 5 5 110
73 234 150 124 77 292 184 373 237 82 53 150 97 153 97 3 0 32 -14 65 -32z
m2279 -191 c68 -62 195 -176 280 -252 86 -76 156 -141 156 -144 0 -3 -57 -48
-127 -99 -71 -52 -150 -111 -178 -131 -45 -33 -293 -205 -322 -223 -12 -8 -45
38 -310 430 l-163 242 67 39 c38 21 113 63 168 94 55 31 141 78 190 106 50 28
95 51 102 51 7 1 68 -50 137 -113z m-1853 -128 c169 -198 383 -441 403 -457
41 -34 39 -48 -13 -80 -44 -27 -285 -202 -477 -348 -39 -29 -73 -53 -77 -53
-3 0 -26 17 -50 38 -78 66 -324 248 -522 387 -47 32 -85 62 -85 65 1 3 26 25
57 50 63 51 119 96 189 156 109 90 456 374 459 374 1 0 54 -60 116 -132z m64
85 c65 -26 186 -59 275 -75 30 -5 188 -13 350 -17 236 -7 306 -12 353 -26 31
-10 57 -21 57 -25 0 -4 -12 -12 -27 -19 -30 -14 -456 -295 -545 -360 l-56 -41
-169 193 c-173 196 -322 372 -337 396 -10 16 8 11 99 -26z m1118 -195 c14 -18
59 -85 100 -149 l75 -116 -300 -192 c-164 -106 -307 -195 -316 -197 -21 -6
-236 241 -228 262 7 17 618 424 638 424 4 0 18 -15 31 -32z m316 -467 c61 -88
111 -163 111 -167 0 -5 -17 -20 -38 -33 -65 -43 -526 -323 -538 -328 -11 -4
-264 281 -264 297 0 4 87 63 193 130 105 67 241 155 301 196 60 40 112 71 117
68 4 -2 58 -76 118 -163z m-864 -146 c276 -317 354 -410 347 -417 -4 -4 -99
-59 -212 -123 -112 -64 -224 -130 -248 -146 l-44 -30 -62 48 c-33 26 -118 93
-187 148 -209 166 -330 260 -340 263 -20 8 -4 24 104 103 61 46 193 143 292
217 l179 134 26 -29 c14 -16 79 -92 145 -168z"/>
<path d="M16682 18648 c-16 -16 -15 -50 2 -73 17 -24 43 -14 52 21 11 45 -25
81 -54 52z"/>
<path d="M16550 18627 c0 -13 -11 -61 -25 -107 -30 -100 -30 -95 -5 -120 23
-23 91 -27 109 -7 15 19 4 27 -35 27 -18 0 -35 4 -39 9 -3 5 5 50 17 99 12 49
18 96 15 105 -10 26 -37 21 -37 -6z"/>
<path d="M16750 18283 c-39 -21 -53 -24 -102 -18 -61 6 -70 -1 -40 -28 38 -35
161 -12 201 37 12 14 8 37 -7 35 -4 0 -27 -12 -52 -26z"/>
<path d="M14489 16385 c-27 -15 -59 -69 -59 -102 0 -68 56 -154 117 -179 68
-29 148 -10 171 41 37 81 -22 198 -120 239 -46 19 -75 20 -109 1z m108 -46
c56 -27 93 -81 93 -133 0 -54 -22 -76 -77 -76 -105 0 -187 161 -110 215 28 20
43 19 94 -6z"/>
<path d="M14871 10959 c-159 -49 -237 -219 -163 -360 119 -229 459 -161 480
96 4 56 1 72 -22 119 -55 113 -187 178 -295 145z"/>
<path d="M9983 16196 c-61 -20 -118 -64 -155 -123 -18 -29 -37 -52 -41 -53 -4
0 -30 11 -57 25 -99 50 -215 76 -360 82 -87 4 -156 1 -193 -6 -84 -18 -194
-77 -252 -135 -71 -71 -90 -115 -90 -203 0 -63 3 -76 30 -115 l31 -43 -23
-110 c-84 -407 -37 -656 144 -761 50 -30 50 -27 9 -159 l-22 -70 -70 5 c-38 3
-150 5 -249 4 -404 -1 -576 -82 -817 -384 -112 -141 -396 -594 -584 -934 -98
-176 -100 -179 -192 -258 -91 -78 -159 -154 -188 -210 -9 -17 -21 -27 -27 -24
-7 2 -70 31 -142 64 -131 60 -312 141 -373 168 -33 15 -34 14 -74 -25 -29 -29
-38 -46 -33 -58 21 -54 119 -414 200 -733 l92 -364 -71 -55 c-39 -29 -108 -88
-154 -129 l-83 -75 -72 33 c-40 17 -77 34 -83 36 -6 3 -14 -2 -17 -11 -5 -12
12 -24 68 -52 l75 -37 -34 -36 c-44 -46 -146 -179 -146 -191 0 -5 -6 -9 -12
-9 -17 0 -151 -51 -162 -61 -6 -6 -6 -13 0 -19 6 -6 32 -1 73 16 34 14 65 23
68 20 3 -3 -6 -32 -20 -63 -37 -85 -51 -164 -51 -298 -1 -141 11 -209 71 -405
48 -158 164 -409 250 -540 84 -129 216 -301 309 -404 49 -54 117 -129 150
-167 l62 -70 -133 -392 c-73 -216 -149 -437 -169 -492 -24 -64 -35 -108 -31
-125 12 -52 -97 -131 -365 -265 -155 -77 -244 -137 -290 -195 -17 -22 -39 -40
-48 -40 -10 0 -37 12 -62 26 -79 45 -107 54 -120 39 -9 -11 3 -20 57 -46 83
-39 79 -35 60 -56 -29 -33 -31 -84 -5 -123 40 -59 118 -67 138 -15 11 28 17
30 56 15 15 -6 75 -15 133 -21 84 -8 123 -17 187 -44 45 -19 89 -35 98 -35 27
0 18 27 -15 40 -18 8 -26 16 -19 20 6 4 89 8 183 9 217 2 230 4 268 50 36 44
119 204 170 326 30 73 40 89 55 86 11 -2 25 -4 33 -5 9 -1 51 72 113 194 54
107 147 285 206 395 58 110 119 227 135 260 52 107 45 106 119 7 36 -48 129
-175 208 -282 262 -358 313 -425 364 -478 l51 -53 -1 -152 c0 -84 -2 -219 -4
-302 -4 -138 -3 -155 18 -207 27 -66 52 -88 102 -88 66 0 120 50 214 198 134
210 275 493 284 570 4 38 -4 59 -82 212 -71 140 -85 173 -76 189 8 16 -13 62
-126 273 -142 261 -344 656 -344 670 0 4 9 8 21 8 36 0 19 34 -20 40 -33 5
-37 11 -129 191 l-94 186 50 74 c99 147 210 275 307 354 22 18 207 144 410
280 503 336 580 399 680 551 44 67 49 71 125 100 56 22 73 40 46 50 -13 5 -12
11 8 43 46 72 90 168 126 271 l36 105 107 7 c200 14 374 55 472 113 91 53 165
165 209 317 44 154 76 433 76 675 0 61 4 114 9 117 4 3 3 25 -4 48 -7 24 -18
120 -24 213 -22 326 -74 604 -137 736 -66 138 -208 245 -484 367 -100 44 -225
85 -323 107 -17 3 -31 15 -37 31 -11 28 -11 181 -1 283 l6 64 54 14 c143 36
302 170 378 318 63 121 77 187 78 348 l0 137 25 0 c43 0 143 54 184 100 62 69
81 121 80 220 0 110 -26 171 -100 239 -82 76 -179 98 -281 67z m-797 -656 c50
-7 136 -11 190 -9 l99 4 1 -70 c2 -85 26 -174 57 -211 l23 -26 56 17 c66 21
108 11 127 -31 16 -35 14 -54 -9 -91 -24 -40 -63 -61 -132 -71 l-53 -7 -12
-100 c-19 -169 -28 -495 -14 -550 11 -42 10 -50 -6 -67 -59 -65 -200 -105
-311 -88 -79 13 -163 51 -192 87 -30 38 -26 96 10 152 16 26 40 89 54 140 14
51 27 95 29 97 2 2 29 -1 60 -6 97 -18 267 28 267 72 0 23 -12 23 -58 -1 -87
-44 -210 -47 -306 -7 -91 38 -166 149 -188 278 -14 88 -2 269 28 417 13 68 27
128 30 132 2 4 39 -5 82 -21 42 -15 118 -33 168 -40z m-291 -1049 c56 -5 69
-9 66 -21 -3 -8 -7 -39 -9 -68 -3 -43 0 -59 19 -86 64 -94 249 -148 387 -112
102 26 202 87 202 123 0 17 15 16 81 -3 104 -30 225 -77 344 -133 343 -163
412 -261 476 -673 28 -188 59 -558 59 -718 -1 -244 -36 -550 -81 -697 -44
-144 -126 -250 -232 -298 -121 -55 -375 -91 -722 -101 -213 -7 -389 2 -610 32
-165 22 -151 14 -164 91 -7 38 -23 114 -36 171 -14 57 -25 111 -25 121 0 14
51 29 293 89 160 39 396 94 522 122 127 28 238 53 248 56 44 14 61 84 97 393
26 224 61 671 54 682 -3 5 -11 9 -19 9 -9 0 -15 -21 -19 -67 -4 -38 -15 -169
-26 -293 -42 -462 -65 -642 -89 -671 -12 -15 -56 -28 -181 -54 -411 -86 -911
-210 -922 -229 -4 -6 -8 -21 -8 -33 0 -28 -11 -28 -135 -8 -134 22 -236 19
-319 -9 l-68 -23 -152 72 c-83 40 -172 82 -198 93 -41 18 -48 26 -58 64 -7 24
-16 48 -21 54 -6 8 -123 71 -167 90 -1 0 8 25 22 55 13 30 63 176 111 324 99
306 158 463 249 668 67 147 82 177 199 390 49 90 67 131 59 139 -16 16 -26 5
-86 -101 -164 -290 -300 -598 -409 -928 -38 -117 -73 -213 -77 -213 -3 0 -17
22 -29 49 -13 27 -34 61 -46 77 -19 24 -26 27 -37 16 -10 -10 -10 -17 2 -35
77 -122 75 -118 74 -187 -1 -51 -9 -84 -34 -141 -18 -41 -36 -78 -40 -82 -4
-5 -43 9 -87 31 -43 22 -142 66 -219 97 -76 32 -154 65 -172 74 l-33 17 39 60
c22 33 72 89 113 125 123 107 140 129 239 305 287 514 551 914 710 1075 122
124 217 170 431 209 107 19 294 24 434 11z m-2425 -1629 c63 -28 171 -76 240
-107 69 -31 166 -74 215 -95 50 -21 139 -59 198 -84 139 -58 474 -223 483
-237 3 -6 2 -15 -4 -21 -7 -7 -79 22 -229 95 -120 58 -292 137 -383 177 -276
120 -654 291 -664 300 -11 11 3 33 18 26 6 -2 63 -27 126 -54z m245 -197 c55
-26 134 -60 175 -77 112 -44 367 -162 522 -240 l137 -70 16 -54 c8 -30 22 -80
31 -111 9 -32 54 -186 101 -342 104 -350 184 -661 170 -661 -5 0 -37 17 -71
38 -70 45 -201 114 -576 304 -146 74 -347 179 -447 232 -182 97 -183 98 -193
139 -6 23 -18 67 -27 97 -8 30 -48 186 -88 345 -41 160 -92 351 -114 425 -23
74 -41 140 -41 146 0 11 173 -62 405 -171z m970 -565 c25 -91 61 -214 80 -275
99 -324 185 -655 185 -716 0 -10 -7 -19 -15 -19 -8 0 -15 2 -15 5 0 27 -112
435 -236 860 -68 235 -90 321 -81 327 23 14 37 -18 82 -182z m194 35 c83 -38
151 -73 151 -76 0 -4 -24 -23 -53 -43 l-53 -37 -94 48 c-99 51 -104 57 -125
152 -9 42 -12 43 174 -44z m599 -62 c108 -14 135 -20 143 -35 10 -19 48 -181
49 -207 0 -9 -7 -11 -21 -8 -25 7 -215 -33 -277 -58 -26 -11 -62 -39 -92 -73
-43 -48 -52 -54 -71 -46 -21 10 -19 13 35 68 49 51 72 96 48 96 -5 0 -42 -34
-82 -76 -49 -51 -75 -73 -82 -66 -14 14 48 89 102 127 40 28 46 36 34 48 -12
11 -58 -21 -114 -78 -64 -65 -86 -80 -96 -64 -4 7 27 43 76 89 79 74 92 100
51 100 -9 0 -49 -30 -87 -66 -38 -37 -77 -74 -88 -83 -17 -15 -18 -15 -10 9 4
14 10 41 13 60 5 28 16 41 55 67 67 44 96 70 96 88 0 24 -22 18 -105 -25 -72
-39 -115 -46 -115 -18 0 28 135 119 224 150 65 22 147 23 314 1z m-594 -124
c6 -5 3 -16 -7 -27 -23 -26 -21 -50 4 -54 21 -3 20 -5 -12 -36 -33 -33 -34
-33 -50 -13 -9 11 -24 50 -33 88 -9 37 -19 76 -22 85 -4 15 3 14 53 -8 32 -14
62 -30 67 -35z m86 -129 c15 -27 3 -60 -21 -60 -10 0 -24 -9 -31 -20 -14 -22
-48 -26 -66 -8 -22 22 -13 38 21 38 28 0 36 5 50 35 19 40 32 44 47 15z m707
-101 c57 -29 103 -56 103 -60 0 -5 -36 -27 -81 -49 -44 -23 -131 -72 -193
-110 -61 -37 -183 -109 -271 -160 -88 -51 -179 -104 -203 -117 -24 -14 -44
-24 -46 -22 -2 2 -6 23 -9 47 -5 41 -4 42 24 42 28 0 335 177 387 223 32 29
28 41 -27 70 -76 42 -80 52 -41 92 46 47 150 89 234 94 11 1 66 -22 123 -50z
m-1892 -90 c116 -61 340 -176 499 -256 l289 -145 -194 -86 c-279 -126 -442
-240 -499 -352 -57 -111 0 -308 172 -591 l22 -36 -26 -74 c-15 -41 -79 -233
-144 -426 -65 -194 -121 -353 -124 -352 -3 0 -25 24 -50 53 -25 30 -87 100
-138 157 -290 322 -492 673 -578 1006 -56 218 -61 379 -19 543 35 134 129 273
291 431 88 84 270 238 284 239 3 0 100 -50 215 -111z m1205 62 c-14 -27 -30
-35 -42 -23 -17 17 -1 42 27 42 22 0 24 -3 15 -19z m1160 -22 c86 -6 218 -8
323 -4 97 3 177 4 177 1 0 -14 -57 -161 -91 -234 -38 -84 -112 -187 -149 -210
-18 -11 -34 -6 -123 32 -56 25 -151 73 -212 106 -60 34 -149 82 -197 106 -49
24 -88 48 -88 54 0 5 16 21 35 36 38 28 44 58 25 110 l-11 27 83 -6 c46 -4
148 -12 228 -18z m-1210 -44 c0 -24 -18 -45 -38 -45 -13 0 -42 57 -42 84 0 12
6 12 40 -2 28 -12 40 -23 40 -37z m128 21 c-12 -27 -34 -40 -43 -26 -6 10 29
50 45 50 6 0 5 -9 -2 -24z m64 -36 c3 -20 0 -30 -9 -30 -7 0 -13 4 -13 9 0 5
-7 11 -15 13 -14 3 -14 6 0 26 20 27 31 22 37 -18z m688 1 c0 -14 -53 -52
-160 -113 -141 -82 -305 -179 -493 -295 -160 -98 -188 -113 -186 -95 3 40 16
47 739 468 75 44 100 52 100 35z m-630 -30 c-10 -20 -30 -29 -30 -14 0 10 33
44 37 39 3 -2 0 -14 -7 -25z m120 -16 c28 -14 50 -28 50 -30 0 -3 -12 -10 -26
-15 -19 -8 -34 -6 -60 6 -42 20 -49 31 -34 49 16 19 12 19 70 -10z m-290 7 c0
-4 -7 -17 -15 -29 -13 -19 -19 -20 -55 -11 -47 12 -51 22 -12 36 33 13 82 15
82 4z m58 -37 c4 -35 -13 -51 -42 -37 -30 13 -32 24 -10 47 21 21 48 15 52
-10z m156 -32 c39 -18 39 -33 0 -33 -26 0 -74 26 -74 41 0 14 36 10 74 -8z
m-269 -22 c28 -10 50 -25 50 -32 0 -15 -75 -32 -87 -20 -8 7 -23 71 -17 71 2
0 27 -9 54 -19z m893 -50 c64 -33 169 -89 232 -125 63 -37 145 -78 182 -94 37
-15 68 -32 68 -38 0 -20 -62 -107 -118 -167 -81 -85 -159 -142 -582 -425 -464
-310 -516 -355 -680 -582 -72 -99 -280 -481 -442 -810 -72 -146 -188 -375
-259 -510 -70 -135 -170 -328 -223 -430 -52 -101 -99 -186 -105 -188 -22 -7
-451 198 -451 216 0 16 620 1840 707 2082 48 133 117 277 184 386 39 64 242
340 291 396 l23 27 115 -70 c63 -38 123 -69 133 -69 24 0 54 16 247 133 91 55
235 141 320 192 85 51 171 102 190 113 19 12 38 22 43 22 4 0 60 -27 125 -59z
m-706 22 c26 -24 23 -32 -24 -54 -24 -11 -61 -31 -83 -44 -59 -36 -95 -30 -95
15 0 15 60 17 72 2 10 -11 13 -10 20 8 5 13 14 20 21 17 10 -4 14 4 14 25 0
46 40 63 75 31z m-522 -257 c9 -12 -2 -32 -63 -108 -234 -291 -337 -473 -446
-790 l-28 -80 -41 65 c-59 93 -132 260 -148 340 -18 83 -8 126 39 189 48 63
191 167 314 226 59 29 162 79 228 112 66 32 123 59 126 59 4 1 12 -6 19 -13z
m461 -1801 c111 -220 253 -492 315 -605 61 -113 123 -224 136 -248 l23 -43
-44 -37 c-102 -86 -407 -310 -415 -305 -8 5 -77 99 -463 621 -90 121 -163 225
-163 231 0 16 160 340 240 486 40 72 92 170 117 219 24 48 46 86 48 85 2 -2
94 -184 206 -404z m518 -1074 c43 -88 53 -115 48 -140 -26 -130 -392 -748
-449 -759 -36 -7 -50 219 -18 278 13 24 81 43 121 35 22 -5 29 -3 29 9 0 34
-73 45 -134 21 -14 -6 -17 -4 -14 11 2 11 28 32 63 51 33 17 60 37 59 42 -3
27 -5 31 -21 31 -10 0 -33 -9 -51 -20 -40 -24 -42 -25 -42 -2 0 9 25 35 56 57
66 47 69 51 54 70 -18 22 -26 19 -76 -27 l-46 -42 4 29 c2 25 16 39 73 76 45
30 70 53 70 65 0 28 -36 20 -98 -21 l-51 -35 -13 23 c-7 12 -12 30 -13 39 0
10 65 67 163 142 89 69 176 136 192 150 17 14 32 25 35 26 3 0 29 -49 59 -109z
m-1954 -186 c93 -47 175 -85 182 -85 7 0 13 -6 13 -14 0 -21 -74 -194 -112
-261 -28 -49 -39 -61 -68 -68 -62 -14 -448 -20 -580 -8 -126 11 -280 39 -280
50 2 44 243 201 309 201 28 0 87 -52 110 -97 13 -26 41 -31 41 -7 0 23 -18 54
-58 98 -24 27 -31 41 -22 46 7 4 20 0 31 -11 11 -11 23 -19 29 -19 5 0 25 -17
45 -37 26 -27 38 -34 46 -26 21 21 0 63 -46 91 -50 30 -56 42 -22 42 25 0 103
-46 126 -73 15 -19 46 -23 56 -7 7 12 -22 70 -35 70 -11 0 -34 40 -27 47 3 2
34 -14 68 -37 47 -31 67 -40 79 -32 34 21 21 40 -59 83 l-79 43 34 38 c19 21
34 43 34 48 0 6 3 10 8 10 4 0 83 -38 177 -85z m2065 -30 c0 -60 -94 -255
-241 -505 -115 -194 -193 -275 -241 -249 -16 9 -11 18 46 87 35 42 81 104 102
137 104 163 268 469 294 549 12 37 14 38 26 21 8 -10 14 -29 14 -40z m-2344
-62 c-8 -9 -46 18 -40 28 4 6 13 4 25 -7 11 -9 17 -19 15 -21z m-306 -384 c78
-7 235 -10 373 -7 l239 5 -24 -24 c-38 -38 -127 -46 -418 -40 -244 6 -369 20
-421 48 -16 8 -31 53 -22 63 3 2 34 -4 71 -15 36 -10 127 -24 202 -30z m-316
-24 c5 -22 4 -26 -4 -15 -5 8 -10 24 -10 34 0 26 6 18 14 -19z m-31 -45 c-6
-7 -23 23 -23 40 0 8 6 4 13 -10 8 -14 12 -27 10 -30z"/>
<path d="M8910 15360 c-14 -26 3 -60 30 -60 27 0 44 34 30 60 -6 11 -19 20
-30 20 -11 0 -24 -9 -30 -20z"/>
<path d="M9004 15303 c-15 -27 -40 -68 -56 -92 -28 -45 -34 -67 -20 -87 13
-20 50 -34 87 -34 29 0 36 3 33 17 -2 10 -17 20 -36 24 -43 9 -49 16 -33 41
34 55 81 159 76 168 -12 19 -24 10 -51 -37z"/>
<path d="M9145 15306 c-13 -19 -14 -29 -5 -45 15 -29 48 -27 56 3 14 58 -21
88 -51 42z"/>
<path d="M8986 14962 c-15 -25 60 -62 129 -62 51 0 103 18 124 43 20 25 -9 32
-49 12 -41 -21 -123 -22 -155 -1 -27 18 -41 20 -49 8z"/>
<path d="M6902 12137 c-33 -35 -37 -77 -14 -131 36 -81 119 -110 169 -60 23
23 25 31 21 81 -4 50 -9 60 -46 95 -50 46 -96 51 -130 15z"/>
<path d="M14592 14667 c-60 -61 -75 -87 -49 -87 16 0 137 121 137 138 0 26
-28 10 -88 -51z"/>
<path d="M14326 14416 c-42 -38 -66 -67 -62 -74 4 -7 11 -12 15 -12 15 0 141
122 141 136 0 26 -25 13 -94 -50z"/>
<path d="M14067 14167 c-64 -59 -82 -87 -54 -87 18 1 137 118 137 135 0 24
-11 18 -83 -48z"/>
<path d="M13798 13916 c-66 -62 -81 -86 -55 -86 21 0 151 125 143 138 -11 19
-16 15 -88 -52z"/>
<path d="M13537 13667 c-64 -59 -82 -87 -54 -87 15 1 137 115 137 129 0 25
-20 15 -83 -42z"/>
<path d="M5364 13530 c-120 -25 -238 -94 -323 -186 -149 -163 -197 -368 -136
-580 49 -168 179 -419 350 -674 108 -160 227 -320 240 -320 12 0 101 120 221
295 232 340 368 620 393 807 37 269 -130 529 -405 634 -57 22 -89 27 -184 30
-63 2 -133 -1 -156 -6z m307 -59 c91 -29 175 -81 243 -154 72 -76 97 -119 132
-222 63 -189 4 -402 -213 -770 -93 -157 -324 -495 -339 -495 -5 0 -122 166
-225 320 -168 251 -298 512 -336 670 -19 83 -13 214 15 293 28 77 102 187 165
242 64 57 171 111 257 130 83 19 214 12 301 -14z"/>
<path d="M5363 13226 c-72 -34 -147 -107 -180 -175 -23 -47 -27 -69 -27 -136
0 -70 4 -88 32 -142 45 -88 84 -128 160 -165 60 -30 75 -33 152 -32 106 1 161
25 241 104 40 40 61 70 75 110 23 69 23 168 0 238 -22 66 -95 148 -168 187
-45 25 -66 30 -143 33 -79 3 -96 0 -142 -22z m231 -36 c70 -27 138 -87 170
-152 21 -41 26 -66 26 -122 -1 -172 -125 -296 -296 -296 -158 0 -279 111 -292
267 -6 81 12 143 59 203 85 108 211 145 333 100z"/>
<path d="M13266 13414 c-71 -63 -84 -83 -60 -91 5 -1 43 28 84 66 56 52 72 72
64 81 -8 8 -31 -6 -88 -56z"/>
<path d="M12407 13434 c-265 -64 -468 -333 -442 -584 20 -185 149 -445 431
-865 117 -175 138 -204 147 -205 4 0 30 31 58 69 37 51 55 68 68 64 23 -6 37
13 22 31 -9 10 12 49 88 163 166 250 299 510 335 654 29 119 18 238 -32 352
-20 45 -20 50 -5 73 20 30 6 51 -21 31 -16 -11 -26 -4 -94 64 -84 83 -180 137
-280 158 -71 15 -204 12 -275 -5z m283 -250 c148 -67 241 -251 201 -399 -30
-111 -122 -206 -238 -244 -82 -27 -137 -26 -217 3 -117 42 -191 120 -222 233
-63 233 123 457 361 437 33 -3 85 -16 115 -30z"/>
<path d="M12444 13111 c-139 -63 -198 -226 -130 -359 46 -91 176 -163 264
-147 147 27 240 137 235 277 -4 95 -56 173 -146 218 -73 36 -158 41 -223 11z"/>
<path d="M10726 12854 c-4 -12 14 -25 80 -55 79 -38 125 -45 108 -18 -5 9
-165 89 -178 89 -2 0 -7 -7 -10 -16z"/>
<path d="M11057 12703 c-15 -14 -3 -24 80 -63 81 -38 124 -45 107 -19 -6 10
-163 89 -176 89 -3 0 -8 -3 -11 -7z"/>
<path d="M11390 12536 c0 -8 29 -28 64 -45 79 -37 112 -46 120 -32 7 11 -142
91 -169 91 -8 0 -15 -6 -15 -14z"/>
<path d="M11727 12383 c-4 -3 -7 -10 -7 -13 0 -11 171 -91 181 -84 21 13 4 28
-76 65 -95 43 -89 41 -98 32z"/>
<path d="M12055 12230 c-10 -17 1 -25 93 -69 73 -36 105 -40 87 -11 -5 8 -88
52 -167 88 -3 2 -9 -2 -13 -8z"/>
<path d="M12846 11873 c-3 -4 -6 -10 -6 -15 0 -11 176 -98 184 -91 14 15 4 30
-31 47 -91 44 -141 64 -147 59z"/>
<path d="M12286 11816 c-57 -11 -83 -31 -54 -41 21 -7 181 29 186 43 5 15 -48
14 -132 -2z"/>
<path d="M11960 11759 c-25 -5 -55 -12 -67 -15 -32 -6 -30 -34 3 -34 52 0 164
31 164 46 0 16 -31 17 -100 3z"/>
<path d="M5732 11716 c2 -10 36 -31 83 -51 91 -40 95 -41 95 -20 0 14 -105 68
-158 82 -19 4 -23 2 -20 -11z"/>
<path d="M11601 11688 c-93 -21 -100 -23 -84 -39 15 -15 188 23 188 41 0 20
-11 19 -104 -2z"/>
<path d="M13176 11701 c-8 -12 5 -21 91 -64 80 -41 93 -44 93 -22 0 8 -34 32
-80 55 -84 42 -95 46 -104 31z"/>
<path d="M11255 11624 c-33 -8 -70 -16 -82 -19 -13 -3 -23 -12 -23 -20 0 -19
26 -19 120 3 51 12 75 22 75 32 0 20 -19 21 -90 4z"/>
<path d="M10875 11551 c-59 -12 -81 -21 -83 -34 -4 -22 11 -21 113 1 54 13 80
23 80 33 0 19 -18 19 -110 0z"/>
<path d="M13514 11535 c-8 -20 -14 -15 84 -64 77 -39 102 -44 102 -21 0 8
-108 69 -172 98 -5 2 -11 -4 -14 -13z"/>
<path d="M10508 11472 c-63 -13 -78 -19 -78 -34 0 -22 -3 -22 104 1 94 21 102
24 91 40 -8 13 -19 13 -117 -7z"/>
<path d="M12286 11422 c-3 -5 1 -29 9 -53 8 -24 19 -63 25 -86 6 -26 17 -43
25 -43 20 0 18 20 -8 109 -21 70 -38 94 -51 73z"/>
<path d="M10160 11398 c-90 -20 -115 -33 -86 -44 15 -6 168 21 188 33 8 4 -1
34 -11 32 -3 -1 -44 -10 -91 -21z"/>
<path d="M13840 11365 c0 -9 37 -34 90 -60 76 -38 91 -43 96 -30 4 9 5 17 3
18 -66 36 -169 87 -178 87 -6 0 -11 -7 -11 -15z"/>
<path d="M9790 11318 c-41 -10 -79 -23 -84 -28 -20 -20 26 -21 106 -3 61 14
84 23 86 36 4 22 -11 21 -108 -5z"/>
<path d="M2340 11264 c-19 -8 -43 -22 -53 -31 -17 -16 -20 -16 -46 0 -75 44
-180 -9 -197 -99 -3 -19 -1 -63 6 -98 l13 -63 -42 -38 c-94 -85 -118 -184 -96
-390 20 -180 42 -248 123 -381 89 -147 129 -229 143 -292 11 -45 10 -65 -9
-145 -44 -197 -82 -259 -167 -271 -317 -46 -646 -204 -772 -371 -120 -158
-215 -451 -288 -893 -9 -56 -15 -109 -12 -116 3 -8 19 -17 36 -21 17 -4 33
-10 36 -15 3 -5 -2 -84 -11 -177 -9 -97 -16 -275 -17 -423 -1 -278 12 -390 57
-501 23 -56 23 -63 13 -201 -20 -301 25 -491 129 -534 27 -11 33 -21 39 -56
10 -59 53 -194 77 -243 111 -220 301 -373 563 -454 186 -56 305 -74 697 -100
147 -9 270 -20 273 -23 26 -25 112 -757 140 -1181 8 -128 20 -290 25 -362 6
-71 19 -273 30 -449 17 -278 22 -320 37 -332 10 -7 24 -14 31 -14 18 0 16 -23
-23 -253 -19 -114 -38 -239 -41 -278 l-7 -71 70 -66 c81 -78 188 -138 422
-239 291 -124 360 -141 431 -105 76 38 97 143 48 237 -31 60 -79 125 -171 231
-100 116 -194 252 -217 312 -18 47 -19 61 -9 117 10 59 13 64 40 70 16 4 33
15 39 25 10 19 39 283 65 585 20 241 31 349 60 615 51 467 101 1023 111 1239
6 135 8 152 21 136 34 -47 56 -212 83 -630 32 -501 47 -831 73 -1645 3 -95 9
-110 39 -110 20 0 21 -3 15 -112 -4 -62 -14 -206 -24 -319 -19 -241 -17 -252
56 -298 61 -38 168 -84 261 -111 41 -12 150 -46 241 -76 216 -69 321 -89 383
-73 101 25 138 105 93 201 -31 68 -86 129 -211 235 -56 47 -121 106 -145 131
-43 45 -43 45 -22 61 11 9 26 31 32 49 9 27 8 37 -6 58 -24 37 -79 58 -118 45
-16 -6 -34 -11 -39 -11 -5 0 -7 42 -6 92 3 87 4 93 25 96 12 2 26 9 31 15 6 7
20 93 32 192 11 99 34 286 50 415 29 228 78 785 101 1140 6 105 9 340 6 590
-4 400 -5 419 -30 530 -70 316 -180 463 -456 608 l-90 48 182 38 c100 21 194
45 209 52 28 14 42 46 77 169 27 96 126 491 196 780 32 132 75 308 96 391 22
83 39 156 39 162 0 6 -10 18 -23 27 -21 13 -46 12 -268 -19 -1100 -154 -1228
-171 -1239 -160 -5 5 -11 25 -15 45 -6 33 -4 37 19 43 18 4 26 13 26 28 0 34
-94 389 -139 525 -23 68 -66 174 -97 238 -119 244 -280 358 -592 418 l-115 22
6 80 c10 129 5 123 105 122 72 0 96 4 137 23 153 74 242 263 305 655 12 72 30
146 40 166 25 46 44 169 35 226 -3 24 -15 63 -25 86 -11 23 -20 63 -20 88 0
99 -61 200 -157 262 -32 20 -110 62 -173 92 -103 49 -121 55 -180 55 -37 0
-87 -7 -111 -15 -40 -14 -49 -14 -88 0 -55 19 -156 19 -201 -1z m196 -44 l42
-21 51 21 c90 35 136 28 289 -42 204 -95 292 -189 292 -312 0 -31 9 -69 22
-96 24 -53 29 -182 9 -243 -14 -43 -37 -52 -110 -45 -66 6 -132 41 -187 96
l-46 47 -30 -38 c-68 -85 -136 -89 -216 -14 -45 43 -60 30 -87 -69 -12 -43
-31 -99 -44 -123 l-23 -44 -20 32 c-52 81 -175 81 -209 -1 -17 -41 -16 -105 2
-143 8 -16 34 -44 59 -63 25 -19 46 -40 48 -47 5 -21 -36 -94 -87 -157 -25
-32 -48 -58 -51 -58 -3 0 -18 29 -34 65 -16 37 -58 114 -94 173 -100 165 -120
216 -138 350 -21 153 -15 283 14 338 11 23 45 62 74 87 l53 45 -15 49 c-23 78
-20 138 11 168 14 14 41 28 60 31 29 5 41 1 68 -21 l32 -28 27 25 c65 61 159
76 238 38z m512 -763 c26 -9 69 -18 95 -19 26 -1 49 -4 51 -7 2 -3 -2 -42 -10
-86 -8 -44 -23 -130 -34 -190 -19 -113 -54 -224 -95 -305 -34 -67 -116 -145
-172 -164 -137 -47 -331 20 -443 153 -34 40 -46 48 -57 40 -20 -17 -17 -23 42
-88 41 -44 79 -71 141 -103 l85 -43 -8 -40 c-4 -22 -8 -112 -8 -200 0 -107 -4
-167 -12 -181 -28 -48 -128 -73 -219 -54 -115 24 -216 90 -290 192 l-37 50 28
25 c15 15 40 54 56 87 33 71 79 226 79 265 0 27 47 112 70 126 7 4 34 41 61
82 67 103 68 139 4 183 -59 41 -80 80 -76 148 1 30 35 62 65 62 31 0 80 -41
96 -80 8 -19 19 -30 28 -28 38 7 93 113 129 247 3 11 6 11 21 -1 32 -29 81
-48 122 -48 42 0 107 27 129 54 11 13 19 10 62 -23 27 -20 70 -45 97 -54z
m-993 -1079 c42 -96 184 -208 309 -244 72 -20 174 -15 229 11 59 28 80 65 85
156 3 49 9 79 16 79 6 0 72 -15 147 -34 215 -53 343 -134 441 -280 78 -113
180 -396 253 -696 14 -58 25 -113 25 -122 0 -21 -111 -59 -302 -102 l-28 -6 0
178 c0 215 -6 274 -29 270 -14 -3 -15 -47 -12 -423 2 -285 -1 -441 -9 -485
-16 -90 -70 -314 -78 -322 -4 -3 -74 -19 -155 -34 -117 -22 -150 -25 -156 -15
-5 7 -26 17 -49 22 -68 15 -421 29 -754 29 l-318 0 0 33 c0 44 41 333 79 562
60 360 84 546 72 558 -7 7 -14 7 -20 2 -7 -8 -91 -532 -91 -568 0 -11 -34 -8
-169 14 -221 37 -525 112 -553 138 -10 9 34 258 76 431 108 448 207 595 501
743 110 55 377 140 461 146 5 1 19 -18 29 -41z m3005 -1137 c0 -14 -47 -220
-94 -410 -24 -97 -78 -316 -120 -486 -92 -372 -139 -535 -160 -551 -9 -6 -51
-18 -93 -27 -247 -52 -750 -161 -883 -191 -193 -44 -622 -126 -654 -126 -22 0
-23 2 -15 33 5 17 27 106 49 197 22 91 94 388 160 660 152 630 166 684 176
687 38 11 1155 166 1389 193 99 12 185 22 190 25 19 7 55 5 55 -4z m-1531
-108 c6 -20 9 -39 6 -41 -2 -3 -54 -15 -116 -27 -61 -13 -117 -29 -124 -36 -8
-8 -25 -47 -38 -87 -16 -47 -27 -67 -31 -57 -7 21 -6 104 2 169 l7 49 90 18
c50 10 108 24 130 33 58 21 63 20 74 -21z m-2322 -147 c88 -23 289 -60 436
-81 43 -6 47 -9 47 -33 0 -15 -16 -142 -35 -282 -22 -167 -31 -256 -24 -261
17 -10 292 -19 618 -20 294 0 474 -9 487 -22 4 -4 -10 -65 -31 -137 -20 -72
-38 -148 -39 -170 -1 -46 28 -37 -291 -94 -457 -83 -794 -120 -961 -106 -200
17 -297 71 -339 190 -50 142 -64 541 -31 865 9 88 16 166 16 174 0 15 0 15
147 -23z m2159 2 c-3 -18 -29 -118 -56 -223 -49 -189 -110 -438 -210 -860 -85
-361 -111 -455 -126 -455 -7 0 -15 4 -18 8 -8 13 30 245 53 327 10 39 31 126
46 195 15 69 37 161 51 205 13 44 30 114 39 155 26 125 135 559 152 604 26 69
81 104 69 44z m-293 -755 c-34 -148 -34 -147 -83 -153 -24 -3 -45 -11 -48 -17
-4 -13 3 -17 50 -27 15 -4 26 -12 23 -19 -2 -6 -6 -25 -10 -41 l-6 -29 -108 7
c-59 4 -121 10 -137 15 -27 7 -29 11 -28 58 2 57 41 198 59 213 14 11 286 70
297 64 3 -2 -1 -34 -9 -71z m-203 -320 c124 -6 140 -13 103 -45 -10 -8 -81
-36 -158 -62 -77 -26 -155 -56 -173 -67 l-32 -18 -88 30 c-48 17 -105 41 -127
52 -37 20 -38 22 -15 25 53 7 234 44 280 58 32 10 51 21 55 35 5 16 10 18 20
9 8 -7 67 -14 135 -17z m-1625 -150 c107 -34 447 -28 706 13 33 6 37 4 43 -20
5 -22 19 -29 122 -62 l116 -36 -34 -23 c-391 -266 -939 -465 -1026 -372 -61
65 -91 242 -77 459 l7 116 46 -29 c26 -16 70 -37 97 -46z m1178 -17 c95 -35
245 -88 335 -117 l163 -54 -5 -38 c-2 -21 -6 -41 -9 -43 -2 -2 -94 25 -203 60
-205 66 -515 163 -616 191 -87 25 -76 37 45 55 97 14 117 11 290 -54z m537 52
c0 -7 -3 -23 -6 -35 -6 -21 -7 -22 -36 -7 l-30 16 28 18 c35 22 44 24 44 8z
m-117 -44 c9 -3 13 -13 10 -25 -6 -20 -36 -24 -83 -9 -25 7 -25 7 10 23 40 19
43 19 63 11z m72 -14 c3 -5 2 -10 -4 -10 -5 0 -13 5 -16 10 -3 6 -2 10 4 10 5
0 13 -4 16 -10z m-145 -61 c0 -12 -5 -11 -45 5 -40 17 -45 33 -12 38 21 4 57
-23 57 -43z m171 -1 c-8 -21 -18 -27 -50 -30 -21 -2 -54 1 -73 6 l-33 9 45 12
c25 6 59 19 75 28 36 19 49 9 36 -25z m1392 -71 c301 -141 427 -305 494 -642
16 -79 18 -149 18 -585 0 -507 -4 -577 -50 -1099 -37 -410 -116 -1078 -130
-1102 -17 -26 -508 4 -526 33 -5 7 -9 69 -9 138 0 128 -24 821 -35 1010 -21
369 -58 882 -70 980 -18 142 -37 207 -73 253 -27 33 -29 45 -35 147 -7 125
-46 260 -97 340 -66 102 -221 227 -393 315 -53 28 -97 53 -97 56 0 4 17 9 38
12 54 8 826 178 831 183 12 11 50 0 134 -39z m-1884 -13 c290 -90 397 -127
450 -155 64 -34 138 -38 253 -13 l73 16 113 -51 c114 -50 277 -152 342 -214
210 -199 234 -382 159 -1255 -10 -129 -33 -354 -49 -500 -16 -147 -43 -415
-60 -597 -37 -402 -80 -829 -84 -832 -1 -2 -26 -7 -56 -13 -84 -16 -245 -12
-347 9 -122 25 -145 38 -155 81 -4 19 -19 235 -33 480 -43 756 -99 1345 -155
1657 l-20 112 20 126 c11 70 18 131 15 136 -13 20 -34 8 -39 -23 -9 -54 -26
-176 -26 -184 0 -3 -30 -4 -67 0 -38 3 -140 11 -228 16 -278 18 -505 49 -655
90 -174 48 -351 159 -460 290 -82 99 -161 279 -172 394 l-3 29 110 22 c61 13
133 30 160 40 201 69 463 199 640 317 55 37 106 67 114 67 7 1 79 -20 160 -45z
m1999 -3461 l152 -6 0 -74 c0 -71 -1 -74 -27 -84 -36 -14 -208 -4 -286 16 -96
25 -97 26 -97 102 l0 66 53 -7 c28 -4 121 -9 205 -13z m-173 -185 c45 -15 94
-21 195 -24 147 -3 144 -1 165 -71 6 -21 3 -23 -25 -23 -67 0 -128 -52 -105
-89 11 -19 40 -12 50 12 9 19 19 22 71 25 45 2 64 -1 74 -12 10 -13 8 -17 -16
-26 -20 -8 -29 -8 -34 1 -11 16 -40 7 -57 -18 -12 -18 -12 -23 0 -34 8 -7 12
-21 9 -31 -7 -27 21 -22 46 7 34 39 58 11 30 -34 -31 -49 32 -69 84 -26 29 25
61 31 92 19 22 -8 20 -21 -4 -29 -36 -11 -80 -56 -80 -80 0 -35 19 -41 44 -13
11 14 38 35 59 48 49 29 64 22 158 -77 70 -74 109 -136 95 -150 -4 -5 -40 -8
-79 -7 -54 0 -115 13 -242 48 -261 74 -492 145 -579 178 l-78 30 5 52 c4 28
12 120 18 204 11 132 15 152 28 146 9 -4 43 -15 76 -26z m-1025 -3 c39 -9 114
-15 188 -15 l124 0 -7 -52 c-4 -29 -10 -56 -14 -61 -15 -15 -109 -19 -179 -7
-39 6 -103 27 -141 45 -71 34 -71 34 -71 75 0 35 3 40 18 36 9 -3 46 -12 82
-21z m1510 -50 c26 -31 -16 -91 -50 -70 -16 10 -41 65 -35 75 10 15 71 12 85
-5z m-1421 -121 c59 -11 106 -14 156 -10 l72 7 16 -43 c21 -52 14 -58 -65 -58
-70 0 -88 -7 -88 -33 0 -19 4 -20 100 -14 63 4 102 2 106 -4 9 -15 3 -18 -41
-20 -22 -1 -47 -3 -56 -6 -20 -4 -30 -35 -18 -54 7 -12 12 -12 30 -1 18 12 23
11 36 -7 16 -24 33 -28 33 -8 0 8 11 19 24 25 20 9 27 7 46 -13 l22 -23 -38
-11 c-22 -6 -44 -11 -51 -11 -19 0 -37 -40 -24 -53 7 -7 25 -3 60 12 56 24 82
26 99 9 22 -22 12 -35 -29 -42 -57 -9 -79 -23 -79 -50 0 -35 10 -38 47 -15 38
24 98 40 119 32 20 -7 118 -132 142 -178 50 -102 37 -131 -57 -122 -72 6 -187
51 -436 172 -236 113 -385 208 -385 243 0 22 47 312 55 338 2 7 25 1 62 -17
32 -16 96 -36 142 -45z m1446 -78 c18 -13 17 -14 -13 -30 -17 -9 -35 -16 -41
-16 -12 0 -24 37 -16 50 9 14 48 12 70 -4z m-520 -212 c150 -53 641 -191 720
-202 39 -5 87 -7 108 -4 69 8 38 -47 -38 -67 -44 -11 -118 -3 -210 24 -140 40
-503 159 -551 180 -62 28 -144 82 -144 95 0 15 6 13 115 -26z m-1122 -100 c66
-49 440 -237 597 -300 63 -25 116 -39 158 -42 51 -4 60 -7 51 -18 -17 -21 -74
-27 -131 -14 -62 14 -321 122 -463 193 -170 84 -285 171 -285 215 0 18 6 15
73 -34z"/>
<path d="M2844 10256 c-3 -8 -4 -29 -2 -48 2 -25 8 -34 25 -36 26 -4 39 31 29
73 -7 28 -43 35 -52 11z"/>
<path d="M3090 10230 c-18 -34 -9 -65 20 -65 22 0 25 4 25 40 0 46 -26 60 -45
25z"/>
<path d="M3004 10226 c-6 -15 5 -111 22 -194 l7 -34 -39 4 c-29 2 -39 -1 -39
-12 0 -21 49 -42 80 -34 36 9 39 35 18 164 -18 107 -34 144 -49 106z"/>
<path d="M2700 9906 c0 -24 52 -78 95 -97 65 -30 155 -21 155 16 0 11 -12 12
-54 8 -45 -5 -61 -2 -90 16 -20 13 -44 33 -55 47 -21 26 -51 32 -51 10z"/>
<path d="M4086 7517 c-63 -36 -99 -88 -104 -151 -4 -51 -2 -57 26 -86 38 -37
97 -41 148 -9 65 40 105 142 80 202 -28 67 -82 83 -150 44z m115 -59 c28 -52
-50 -168 -113 -168 -83 0 -92 97 -15 168 48 45 104 45 128 0z"/>
<path d="M14177 11203 c-4 -3 -7 -10 -7 -15 0 -12 181 -99 191 -92 21 12 4 26
-81 69 -98 49 -94 48 -103 38z"/>
<path d="M5591 11081 c-84 -37 -106 -56 -79 -66 20 -8 188 73 188 90 0 21 -14
18 -109 -24z"/>
<path d="M12380 11068 c2 -61 28 -182 39 -186 12 -4 13 10 8 74 -4 44 -10 89
-13 102 -7 23 -34 31 -34 10z"/>
<path d="M9425 10970 c-10 -16 -2 -22 84 -69 68 -38 91 -43 91 -21 0 8 -119
83 -153 96 -8 3 -18 0 -22 -6z"/>
<path d="M5252 10935 c-78 -35 -100 -50 -89 -61 15 -15 192 61 189 81 -2 18
-26 13 -100 -20z"/>
<path d="M4895 10789 c-79 -34 -94 -44 -79 -59 11 -11 186 58 188 75 2 20 -40
13 -109 -16z"/>
<path d="M9734 10778 c-4 -6 -1 -16 7 -22 8 -6 42 -32 76 -58 57 -45 73 -50
73 -23 0 12 -125 115 -140 115 -5 0 -12 -5 -16 -12z"/>
<path d="M12427 10713 c-11 -19 -12 -186 -1 -190 16 -5 24 31 24 114 0 64 -10
97 -23 76z"/>
<path d="M4565 10634 c-94 -54 -103 -60 -89 -74 7 -7 28 0 66 22 31 18 70 41
87 50 27 15 44 48 24 48 -5 0 -44 -21 -88 -46z"/>
<path d="M10005 10540 c-8 -12 105 -159 122 -160 29 -1 19 23 -39 94 -62 77
-72 84 -83 66z"/>
<path d="M4248 10422 c-38 -31 -68 -64 -68 -74 0 -10 4 -18 8 -18 15 0 152
123 152 137 0 24 -25 12 -92 -45z"/>
<path d="M12380 10308 c-6 -24 -15 -56 -20 -72 -20 -58 -5 -103 18 -58 8 14
42 150 42 166 0 4 -7 6 -15 6 -8 0 -19 -17 -25 -42z"/>
<path d="M10224 10237 c-7 -20 74 -167 92 -167 22 0 17 17 -27 96 -44 80 -56
93 -65 71z"/>
<path d="M4052 10198 c-14 -14 -16 -35 -3 -43 12 -7 41 22 41 41 0 17 -22 18
-38 2z"/>
<path d="M12256 9926 c-48 -106 -51 -116 -29 -116 13 0 28 24 56 86 35 80 39
104 16 104 -5 0 -25 -33 -43 -74z"/>
<path d="M10396 9921 c-8 -12 86 -180 101 -181 27 0 21 22 -28 104 -48 82 -61
96 -73 77z"/>
<path d="M12071 9589 c-35 -58 -47 -86 -40 -94 13 -12 48 28 86 102 20 38 25
55 17 63 -8 8 -25 -11 -63 -71z"/>
<path d="M10590 9598 c0 -7 16 -36 34 -64 19 -29 32 -54 29 -58 -4 -3 -21 -6
-40 -6 -23 0 -33 -5 -33 -15 0 -11 12 -15 49 -15 44 0 52 -4 71 -30 23 -33 43
-31 38 3 -3 19 2 22 40 25 61 4 48 26 -19 32 -54 5 -54 5 -97 70 -42 62 -72
87 -72 58z"/>
<path d="M10994 9471 c-2 -2 -4 -10 -4 -18 0 -10 23 -13 101 -13 90 0 100 2
97 18 -3 15 -16 17 -96 17 -52 0 -95 -2 -98 -4z"/>
<path d="M8350 9450 c0 -20 5 -21 97 -18 84 3 98 6 101 21 3 15 -7 17 -97 17
-95 0 -101 -1 -101 -20z"/>
<path d="M8725 9460 c-13 -21 6 -25 99 -22 75 3 96 6 96 18 0 11 -19 14 -94
14 -53 0 -98 -4 -101 -10z"/>
<path d="M9097 9464 c-17 -17 12 -24 104 -24 76 0 100 3 97 13 -5 13 -188 23
-201 11z"/>
<path d="M9472 9453 c2 -11 12 -18 26 -17 12 0 56 1 97 2 59 2 75 5 75 17 0
12 -18 15 -101 15 -90 0 -100 -2 -97 -17z"/>
<path d="M9840 9455 c0 -12 18 -15 100 -15 82 0 100 3 100 15 0 12 -18 15
-100 15 -82 0 -100 -3 -100 -15z"/>
<path d="M10207 9464 c-17 -17 12 -24 104 -24 76 0 100 3 97 13 -5 13 -188 23
-201 11z"/>
<path d="M11360 9455 c0 -12 17 -15 95 -15 78 0 95 3 95 15 0 12 -17 15 -95
15 -78 0 -95 -3 -95 -15z"/>
<path d="M11853 9295 c-54 -64 -60 -75 -47 -86 18 -14 13 -19 92 84 38 49 47
78 24 77 -4 -1 -35 -34 -69 -75z"/>
<path d="M10840 9250 c-10 -6 2 -26 51 -84 35 -42 67 -76 71 -76 25 0 12 30
-37 91 -67 80 -67 80 -85 69z"/>
<path d="M6570 9233 c-84 -16 -85 -17 -77 -36 4 -12 20 -11 99 4 51 10 94 19
96 19 1 0 2 7 2 15 0 18 -19 18 -120 -2z"/>
<path d="M6211 9146 c-71 -21 -94 -37 -73 -50 5 -3 31 1 58 8 27 8 68 20 92
26 25 6 42 17 42 25 0 20 -29 18 -119 -9z"/>
<path d="M11612 9025 c-43 -43 -60 -68 -56 -79 3 -9 10 -16 14 -16 12 0 125
129 125 142 0 26 -24 13 -83 -47z"/>
<path d="M5857 9045 c-85 -25 -95 -31 -81 -45 5 -5 41 -1 94 12 88 22 114 34
104 49 -8 13 -29 10 -117 -16z"/>
<path d="M14362 8989 c-65 -54 -84 -86 -47 -77 23 5 145 111 145 125 0 25 -25
13 -98 -48z"/>
<path d="M11084 8969 c-6 -11 68 -86 123 -125 21 -15 43 -12 43 6 0 9 -143
130 -154 130 -2 0 -8 -5 -12 -11z"/>
<path d="M5508 8922 c-80 -32 -103 -52 -79 -66 5 -3 38 7 72 23 35 15 77 33
92 40 27 10 33 32 11 37 -5 1 -48 -14 -96 -34z"/>
<path d="M11383 8780 c-24 -26 -43 -51 -43 -54 0 -3 9 -10 19 -15 16 -9 24 -3
56 43 33 48 39 77 17 76 -4 -1 -26 -23 -49 -50z"/>
<path d="M14070 8759 c-79 -53 -91 -66 -67 -75 16 -6 169 95 169 111 -2 22
-30 12 -102 -36z"/>
<path d="M5185 8748 c-87 -61 -89 -63 -81 -83 5 -13 21 -5 86 45 44 33 80 65
80 70 0 22 -20 14 -85 -32z"/>
<path d="M11510 8636 c0 -14 138 -106 158 -106 33 0 14 25 -53 70 -78 51 -105
61 -105 36z"/>
<path d="M11171 8564 c-59 -65 -71 -87 -52 -98 11 -7 143 134 138 148 -8 24
-29 12 -86 -50z"/>
<path d="M13750 8562 c-82 -45 -100 -64 -69 -70 21 -4 174 82 174 98 0 24 -19
19 -105 -28z"/>
<path d="M4867 8504 c-78 -57 -99 -84 -65 -84 17 0 167 114 168 127 0 27 -19
18 -103 -43z"/>
<path d="M11835 8449 c-9 -14 -11 -13 85 -53 95 -40 113 -43 108 -19 -2 10
-34 29 -88 50 -95 37 -96 37 -105 22z"/>
<path d="M13403 8407 c-76 -29 -98 -47 -74 -62 15 -9 191 65 191 81 0 20 -24
16 -117 -19z"/>
<path d="M4590 8345 c-14 -7 -51 -21 -82 -31 -43 -13 -58 -22 -58 -36 0 -23 0
-23 92 8 83 27 107 44 86 62 -9 7 -20 6 -38 -3z"/>
<path d="M10915 8290 c-55 -55 -67 -72 -57 -82 10 -10 27 2 82 57 67 67 84 95
57 95 -7 0 -44 -31 -82 -70z"/>
<path d="M12200 8325 c0 -24 188 -64 201 -43 12 19 2 24 -91 42 -104 20 -110
20 -110 1z"/>
<path d="M13046 8311 c-84 -15 -112 -30 -87 -46 10 -6 176 21 193 31 8 5 -1
35 -11 33 -3 -1 -46 -9 -95 -18z"/>
<path d="M12580 8265 c0 -13 14 -15 98 -13 126 4 124 22 -3 26 -81 2 -95 0
-95 -13z"/>
<path d="M10667 8032 c-68 -69 -81 -92 -49 -92 21 1 146 136 137 150 -11 17
-19 12 -88 -58z"/>
<path d="M5216 7964 c-6 -16 0 -21 93 -61 69 -31 96 -34 89 -12 -2 6 -42 27
-90 48 -66 30 -88 35 -92 25z"/>
<path d="M10421 7760 c-41 -46 -61 -76 -57 -86 9 -23 16 -17 85 63 55 64 68
93 42 93 -4 0 -35 -32 -70 -70z"/>
<path d="M13130 7821 c-52 -17 -89 -42 -124 -82 l-36 -42 -71 2 c-175 5 -288
-85 -289 -229 0 -95 50 -174 153 -242 l37 -25 3 -349 c3 -296 6 -358 20 -409
48 -165 128 -252 262 -286 l47 -12 -5 -64 c-2 -35 -7 -67 -10 -70 -4 -3 -67 0
-141 7 -172 16 -355 8 -460 -20 -71 -19 -80 -19 -95 -5 -13 11 -41 15 -109 15
-85 0 -92 -1 -92 -20 0 -18 7 -20 88 -20 l87 0 -56 -28 c-230 -117 -372 -294
-674 -837 -43 -77 -117 -207 -165 -290 -92 -160 -137 -238 -263 -460 -141
-247 -158 -275 -168 -275 -5 0 -15 11 -21 25 -13 29 -38 34 -38 8 1 -10 7 -29
15 -43 19 -34 19 -40 -8 -73 l-22 -28 -470 177 c-259 97 -559 210 -667 250
-204 77 -255 87 -296 58 -28 -19 -28 -36 -2 -229 57 -418 110 -884 110 -961
l0 -31 -182 0 c-325 -1 -521 -62 -671 -209 -185 -180 -160 -440 63 -664 47
-47 117 -111 155 -141 95 -75 323 -237 358 -256 56 -29 17 -24 -92 11 -61 20
-130 36 -153 36 -24 0 -91 -14 -151 -30 -59 -17 -151 -37 -205 -46 -228 -36
-260 -43 -317 -65 -82 -31 -175 -123 -196 -194 -30 -106 -1 -217 73 -280 66
-56 134 -79 245 -83 115 -5 166 3 408 58 94 22 204 45 246 51 74 12 78 11 195
-24 65 -20 175 -50 243 -67 262 -66 599 -166 926 -275 603 -201 834 -262 1121
-296 125 -15 442 -6 559 15 350 64 523 138 626 268 23 29 67 75 98 102 159
139 271 314 397 624 22 54 33 71 44 66 51 -22 72 1 132 151 17 44 67 160 110
258 67 154 143 362 163 447 4 18 19 30 49 43 73 30 189 112 234 166 46 54 116
179 153 271 70 178 265 742 292 850 82 317 124 569 134 785 9 221 -21 375 -99
507 -118 200 -499 446 -830 538 -40 11 -75 23 -79 27 -11 12 -29 179 -29 276
l0 88 63 62 c56 56 147 167 218 266 83 114 131 312 133 541 1 204 -16 265
-107 376 -34 42 -84 106 -110 143 -69 94 -86 111 -142 137 -56 27 -110 30
-196 12 -52 -11 -63 -9 -140 16 -88 30 -230 43 -279 27z m262 -66 c84 -28 91
-29 158 -17 86 15 104 15 153 1 50 -14 99 -58 157 -143 26 -39 68 -94 94 -123
111 -123 139 -304 90 -583 -30 -171 -67 -257 -155 -357 -28 -32 -75 -93 -105
-135 -47 -67 -78 -98 -98 -98 -8 0 -7 145 0 192 6 32 10 37 42 43 55 10 90 32
117 74 35 53 42 101 20 156 -29 77 -116 100 -190 50 -20 -15 -38 -25 -40 -23
-1 2 -8 31 -15 64 -7 34 -27 90 -46 125 -19 35 -46 87 -61 116 -15 29 -32 54
-39 57 -6 2 -45 -4 -85 -15 -141 -37 -258 -25 -439 44 -148 56 -220 106 -272
186 -22 36 -28 57 -28 102 0 49 5 64 33 101 49 65 93 83 208 84 l97 1 53 55
c30 29 70 59 89 66 56 18 165 8 262 -23z m-398 -632 c125 -44 136 -46 236 -46
80 0 119 5 162 21 l57 20 14 -22 c8 -12 39 -69 68 -126 49 -98 53 -111 57
-192 5 -98 15 -109 52 -55 46 67 120 96 164 64 26 -19 36 -77 20 -123 -18 -52
-54 -81 -109 -90 -72 -10 -75 -19 -75 -239 0 -201 20 -422 44 -479 13 -31 13
-36 -6 -56 -116 -124 -408 -165 -511 -72 -56 50 -63 129 -24 242 14 41 29 98
32 126 l7 51 73 6 c116 10 253 73 293 134 24 38 -10 41 -55 5 -153 -120 -379
-136 -510 -36 -76 58 -125 174 -143 336 -18 174 -10 578 13 578 5 0 69 -21
141 -47z m39 -1150 l59 -6 -8 -46 c-25 -139 25 -234 141 -272 22 -7 76 -13
120 -13 146 0 258 41 356 131 l59 55 93 -32 c348 -124 669 -351 760 -540 61
-126 72 -182 72 -380 -1 -96 -7 -218 -14 -270 -20 -146 -62 -333 -78 -352 -12
-13 -13 -21 -5 -31 21 -25 -46 -252 -215 -727 -161 -453 -218 -557 -360 -653
-121 -83 -360 -159 -607 -194 -102 -14 -138 -15 -256 -5 -146 12 -163 17 -515
150 l-100 38 -17 115 c-9 63 -24 146 -32 183 -22 92 -21 94 22 105 66 18 332
60 538 86 205 25 337 51 415 81 157 60 250 295 470 1188 43 171 49 210 38 217
-8 4 -17 5 -20 1 -4 -4 -35 -119 -69 -257 -123 -494 -225 -827 -293 -961 -75
-147 -141 -176 -512 -224 -234 -31 -545 -79 -585 -92 -19 -6 -42 -17 -51 -25
-15 -12 -34 -8 -155 33 -116 40 -151 48 -209 47 -76 0 -163 -26 -215 -63 -17
-12 -33 -21 -34 -19 -2 2 -13 72 -25 156 -28 196 -43 252 -74 279 -14 12 -31
24 -38 26 -10 3 -7 16 9 51 12 26 22 49 22 51 0 15 182 429 320 726 118 255
170 377 227 535 63 172 73 215 50 215 -10 0 -27 -34 -53 -107 -59 -170 -138
-361 -245 -590 -114 -247 -278 -615 -320 -721 -45 -113 -58 -135 -77 -129 -9
3 -89 33 -177 67 -88 34 -206 79 -261 100 -56 21 -112 43 -124 50 -22 12 -22
12 -2 33 34 38 144 222 332 557 29 52 81 142 115 200 34 58 106 184 160 280
234 419 351 596 480 725 188 188 364 250 680 240 83 -3 176 -8 208 -12z
m-3361 -1553 c13 -5 176 -66 363 -135 187 -70 379 -142 427 -161 49 -19 90
-34 94 -34 3 0 51 -18 107 -39 56 -22 183 -70 282 -106 288 -106 677 -256 717
-276 21 -11 44 -29 52 -42 14 -21 106 -624 141 -927 9 -74 24 -200 35 -280 37
-278 50 -392 50 -446 0 -46 -3 -54 -19 -54 -19 0 -274 87 -511 173 -347 128
-1574 644 -1627 685 -21 16 -24 37 -47 257 -83 787 -100 941 -128 1142 -25
182 -29 225 -18 238 14 17 48 19 82 5z m2598 -1183 l155 -54 27 -109 c16 -60
29 -136 30 -169 l3 -60 -64 2 c-35 1 -100 9 -144 18 l-81 16 -75 -35 c-75 -35
-121 -39 -121 -11 0 26 42 63 95 85 58 23 60 26 46 49 -16 24 -117 -33 -188
-106 -67 -69 -79 -68 -68 2 5 37 15 52 60 93 30 27 74 58 99 68 30 12 46 25
46 37 0 9 -7 17 -15 17 -27 0 -108 -46 -158 -90 -26 -23 -49 -41 -51 -39 -2 2
-6 25 -8 52 -5 43 -3 49 26 75 17 15 60 40 94 56 58 28 75 47 53 60 -12 8 -69
-17 -132 -55 -27 -17 -51 -30 -53 -28 -2 2 -6 21 -9 42 -6 35 -4 39 36 64 53
35 162 72 207 73 19 0 105 -24 190 -53z m-2592 -51 c4 -5 19 -201 15 -206 -3
-3 -36 11 -74 31 -38 20 -71 34 -74 31 -19 -20 2 -41 75 -77 43 -21 81 -44 84
-51 3 -7 8 -41 12 -76 4 -35 12 -69 18 -77 43 -55 1451 -640 1939 -806 l258
-87 97 42 c456 198 726 310 748 310 19 0 51 -18 314 -173 102 -60 215 -124
253 -143 37 -19 67 -37 67 -40 0 -14 -134 -314 -167 -374 -60 -109 -162 -244
-211 -279 l-27 -19 -1 102 c-2 125 -22 212 -73 313 -40 80 -119 173 -146 173
-21 0 -8 -27 38 -80 86 -99 139 -254 140 -410 1 -77 -3 -104 -20 -142 -26 -58
-98 -137 -163 -178 -161 -103 -510 -180 -818 -180 -338 0 -647 69 -1292 290
-179 61 -388 129 -465 151 -154 43 -562 155 -693 190 -94 24 -97 28 -110 128
-15 112 25 245 93 311 l34 33 303 -12 c167 -6 436 -18 598 -26 478 -24 1206
-38 1630 -32 217 4 405 9 418 13 13 4 22 13 20 22 -3 17 -99 18 -378 2 -167
-9 -1128 11 -1670 35 -195 9 -472 20 -615 24 l-260 7 -75 38 c-179 91 -407
249 -544 377 -253 236 -290 479 -102 662 102 99 281 170 470 187 76 7 345 3
354 -4z m2659 -376 c64 -12 125 -25 135 -31 11 -6 31 -8 44 -5 16 4 84 -17
211 -65 103 -39 238 -86 298 -106 133 -42 234 -99 213 -119 -13 -13 -279 -135
-383 -176 -27 -10 -79 -32 -115 -48 -36 -16 -144 -61 -240 -101 -96 -39 -248
-104 -336 -145 -89 -41 -167 -74 -173 -74 -7 0 -12 23 -12 60 -1 33 -2 65 -3
71 -1 6 17 18 39 27 87 33 238 98 405 174 96 43 196 88 223 100 26 12 46 26
44 32 -5 15 -164 82 -382 161 -258 94 -388 146 -404 161 -13 11 -12 14 3 20
10 4 22 18 27 31 7 19 14 23 27 18 47 -20 108 -17 167 9 73 31 70 31 212 6z
m1463 -203 c-24 -80 -83 -232 -135 -347 -18 -41 -61 -140 -94 -220 -34 -80
-65 -151 -70 -159 -10 -16 -39 -1 -501 267 -52 31 -113 66 -134 78 l-40 23 35
15 c19 9 95 42 169 75 222 97 251 112 261 139 11 30 3 41 -57 79 -24 15 -44
30 -44 33 0 3 20 4 44 2 105 -9 399 41 541 91 22 8 42 10 43 5 2 -4 -6 -41
-18 -81z m-1812 31 c34 -12 62 -25 62 -28 0 -4 -23 -17 -50 -30 -28 -13 -56
-30 -62 -38 -10 -12 -13 -11 -19 5 -10 24 -11 113 -1 113 4 0 35 -10 70 -22z
m205 -74 c31 -16 34 -29 11 -38 -28 -11 -59 -6 -99 14 -22 11 -47 17 -57 14
-30 -9 -20 13 13 29 33 16 75 10 132 -19z m-152 -45 c46 -24 -41 -54 -96 -32
-14 5 -11 9 16 24 40 21 53 23 80 8z m318 -20 c45 -17 81 -35 81 -39 0 -5 -16
-12 -36 -16 -27 -5 -52 0 -106 22 l-70 28 22 18 c12 10 24 18 25 18 2 0 40
-14 84 -31z m-187 -17 c6 -6 -3 -18 -22 -32 -29 -21 -35 -22 -71 -10 -21 7
-39 16 -39 19 0 3 12 14 28 23 28 18 87 17 104 0z m-137 -63 c31 -11 41 -18
28 -18 -16 -1 -21 -6 -17 -16 7 -18 -21 -31 -39 -17 -6 5 -27 13 -44 17 -28 6
-33 11 -33 36 0 27 2 29 28 23 15 -4 50 -15 77 -25z m269 7 l39 -16 -28 -22
c-28 -21 -29 -22 -74 -4 -25 10 -56 20 -68 23 -13 3 -23 9 -23 13 0 14 46 30
80 26 19 -2 52 -11 74 -20z m266 -6 l35 -18 -39 -16 c-49 -20 -72 -20 -115 3
l-35 19 40 20 c41 22 57 21 114 -8z m-367 -62 l59 -20 -29 -19 c-15 -10 -34
-19 -40 -19 -17 0 -123 52 -123 61 0 11 45 28 60 22 8 -3 41 -14 73 -25z m230
8 l38 -23 -37 -15 c-34 -14 -40 -13 -75 6 l-39 21 23 17 c29 23 44 22 90 -6z
m-443 -51 c-13 -14 -28 -25 -35 -25 -6 0 -12 11 -13 25 -2 22 2 25 35 25 l36
0 -23 -25z m143 -34 c9 -9 -38 -51 -57 -51 -6 0 -27 10 -46 21 l-34 21 27 24
c27 23 29 23 65 8 20 -8 41 -19 45 -23z m203 29 c16 -6 23 -14 18 -19 -18 -17
-199 -91 -222 -91 -46 0 -16 25 108 89 67 34 63 33 96 21z m-294 -113 c20 -11
35 -24 32 -28 -5 -9 -93 -43 -98 -38 -2 2 -7 26 -11 53 -7 47 -7 48 16 41 13
-4 41 -17 61 -28z m-2744 -266 c70 -22 135 -41 145 -43 15 -3 12 -10 -18 -53
-53 -74 -69 -139 -62 -263 l5 -103 -56 3 -55 3 -19 65 c-10 36 -18 90 -18 120
0 51 -3 57 -29 73 -40 23 -47 22 -60 -13 -5 -16 -13 -30 -16 -30 -3 0 -18 14
-34 32 -33 37 -55 33 -75 -13 l-13 -30 -30 25 c-17 14 -38 26 -46 26 -27 0
-30 -20 -6 -39 18 -15 21 -24 15 -54 -4 -20 -10 -37 -13 -37 -3 0 -16 12 -29
27 -17 20 -20 31 -13 44 20 38 0 40 -34 4 l-23 -26 -17 36 c-16 35 -47 48 -47
21 0 -8 9 -36 20 -62 20 -45 20 -51 5 -95 -16 -52 -20 -89 -7 -89 15 0 32 24
32 47 0 35 13 28 32 -17 13 -32 22 -40 42 -40 16 0 27 7 31 20 3 11 10 20 14
20 4 0 16 -9 26 -20 10 -11 30 -20 44 -20 33 0 71 26 71 48 1 14 2 14 12 -3 6
-11 20 -30 31 -42 l20 -23 -21 0 c-12 0 -105 -18 -207 -40 -273 -59 -397 -53
-497 23 -117 89 -124 239 -16 348 60 60 135 86 358 123 113 20 243 46 290 60
47 13 98 25 113 25 16 1 86 -17 155 -38z m-230 -242 c8 -13 11 -32 6 -52 l-6
-31 -14 25 c-14 26 -19 79 -6 79 4 0 13 -9 20 -21z m102 -31 c0 -39 -1 -40
-15 -22 -15 20 -19 46 -8 57 15 16 23 4 23 -35z m-156 -30 c18 -25 21 -74 6
-112 -11 -30 -50 -36 -70 -11 -14 17 -6 74 16 117 18 34 28 35 48 6z m124 0
c22 -22 5 -128 -20 -128 -35 0 -49 79 -22 118 17 25 25 27 42 10z m-238 -73
c0 -26 -28 -67 -40 -60 -14 9 -32 84 -25 105 6 19 7 19 36 -2 16 -12 29 -31
29 -43z m308 -42 l20 -52 -30 -6 c-16 -4 -32 -5 -34 -2 -3 3 0 30 7 61 8 30
14 54 15 53 1 -1 11 -25 22 -54z"/>
<path d="M12867 6854 c-9 -9 -9 -68 -1 -77 4 -3 15 -2 26 4 14 8 18 19 16 42
-3 30 -25 47 -41 31z"/>
<path d="M12960 6824 c-6 -14 -10 -30 -10 -36 0 -6 -16 -49 -36 -95 -43 -99
-41 -127 11 -149 43 -18 79 -18 94 -1 14 18 4 27 -30 27 -15 0 -36 8 -48 18
l-21 17 26 60 c44 102 65 166 59 176 -11 18 -36 9 -45 -17z"/>
<path d="M13108 6825 c-13 -30 3 -75 27 -75 32 0 40 72 11 92 -18 13 -26 9
-38 -17z"/>
<path d="M13175 6415 c-54 -33 -101 -39 -152 -21 -46 16 -67 6 -41 -21 34 -33
139 -37 198 -8 34 17 63 51 55 64 -8 14 -13 13 -60 -14z"/>
<path d="M10451 3364 c-46 -39 -59 -92 -37 -160 33 -105 133 -172 209 -140 84
35 103 129 45 226 -57 95 -154 128 -217 74z m130 -37 c45 -30 79 -92 79 -144
0 -57 -26 -83 -81 -83 -34 0 -48 6 -79 38 -110 109 -41 271 81 189z"/>
<path d="M9640 7705 c-237 -54 -427 -242 -475 -472 -41 -194 14 -387 205 -718
127 -222 369 -567 401 -573 17 -3 122 137 272 366 166 251 266 439 319 595 65
195 45 371 -62 536 -22 34 -39 71 -37 83 2 18 -3 23 -25 23 -15 1 -42 16 -67
38 -117 105 -359 161 -531 122z m295 -52 c149 -38 282 -144 354 -282 136 -261
76 -491 -267 -1016 -101 -156 -242 -355 -251 -355 -8 1 -101 128 -195 268
-167 248 -285 469 -343 641 -31 91 -36 119 -37 201 -1 191 93 362 257 469 145
94 307 119 482 74z"/>
<path d="M9663 7410 c-84 -27 -160 -97 -199 -182 -25 -54 -29 -75 -29 -148 1
-72 5 -94 28 -142 35 -72 110 -140 185 -168 80 -31 205 -25 277 12 161 84 236
284 164 439 -77 165 -257 244 -426 189z m223 -51 c65 -24 129 -83 159 -144 12
-24 21 -69 23 -113 4 -66 1 -79 -27 -137 -114 -231 -420 -233 -537 -3 -21 42
-27 68 -28 123 -1 116 59 211 166 264 77 39 158 42 244 10z"/>
<path d="M6447 7433 c-16 -15 -2 -26 77 -64 93 -43 106 -46 106 -24 0 9 -34
31 -86 55 -98 45 -89 42 -97 33z"/>
<path d="M6783 7275 c-7 -20 -13 -16 87 -59 98 -41 100 -42 100 -21 0 9 -19
24 -43 34 -23 10 -62 28 -87 40 -52 25 -49 25 -57 6z"/>
<path d="M7132 7113 c5 -25 164 -91 180 -75 9 9 -10 22 -75 52 -98 45 -110 47
-105 23z"/>
<path d="M7476 6973 c-17 -17 1 -32 78 -67 78 -35 106 -39 106 -16 0 4 -6 10
-12 13 -7 3 -47 21 -90 40 -42 20 -79 33 -82 30z"/>
<path d="M7812 6804 c3 -17 166 -96 181 -87 19 11 0 26 -79 63 -97 45 -107 47
-102 24z"/>
<path d="M8150 6647 c0 -13 143 -87 168 -87 34 0 4 30 -63 63 -80 39 -105 45
-105 24z"/>
<path d="M8487 6503 c-14 -14 -4 -22 79 -62 96 -46 104 -48 104 -26 0 10 -32
31 -86 55 -97 45 -88 42 -97 33z"/>
<path d="M8827 6343 c-16 -15 -2 -26 79 -63 96 -45 104 -46 104 -25 0 9 -34
31 -86 55 -98 45 -89 42 -97 33z"/>
<path d="M9166 6184 c-4 -11 5 -20 32 -30 20 -9 57 -25 81 -35 28 -12 48 -16
54 -10 14 14 1 28 -46 44 -23 8 -58 22 -79 31 -32 14 -37 14 -42 0z"/>
<path d="M11110 5995 c-18 -22 1 -26 106 -23 71 2 89 6 89 18 0 22 -176 27
-195 5z"/>
<path d="M11487 6004 c-4 -4 -7 -13 -7 -21 0 -11 20 -13 98 -11 78 2 97 6 97
18 0 12 -18 16 -90 18 -50 1 -94 0 -98 -4z"/>
<path d="M11845 5999 c-14 -22 14 -30 106 -27 76 2 94 6 94 18 0 12 -19 16
-97 18 -63 2 -99 -1 -103 -9z"/>
<path d="M9990 5985 c0 -12 17 -15 95 -15 78 0 95 3 95 15 0 12 -17 15 -95 15
-78 0 -95 -3 -95 -15z"/>
<path d="M10360 5985 c0 -12 18 -15 100 -15 82 0 100 3 100 15 0 12 -18 15
-100 15 -82 0 -100 -3 -100 -15z"/>
<path d="M10730 5985 c0 -12 18 -15 105 -15 87 0 105 3 105 15 0 12 -18 15
-105 15 -87 0 -105 -3 -105 -15z"/>
<path d="M5670 5876 c0 -19 170 -66 188 -53 20 16 2 26 -79 47 -88 23 -109 24
-109 6z"/>
<path d="M9846 5881 c-8 -12 94 -161 111 -161 22 0 15 21 -34 97 -45 68 -65
85 -77 64z"/>
<path d="M6030 5777 c0 -9 30 -23 78 -36 42 -12 85 -25 95 -28 12 -4 17 0 17
14 0 15 -16 23 -82 41 -96 26 -108 27 -108 9z"/>
<path d="M6384 5679 c-3 -6 -2 -14 2 -18 12 -10 154 -51 177 -51 38 0 8 26
-54 46 -98 32 -117 35 -125 23z"/>
<path d="M10050 5584 c0 -13 102 -164 111 -164 23 0 15 27 -28 92 -26 40 -56
74 -65 76 -10 2 -18 0 -18 -4z"/>
<path d="M6745 5569 c-10 -14 -11 -14 93 -47 84 -27 113 -28 97 -2 -5 8 -158
60 -177 60 -4 0 -10 -5 -13 -11z"/>
<path d="M7100 5457 c0 -15 164 -71 186 -63 30 11 11 24 -74 49 -101 31 -112
32 -112 14z"/>
<path d="M7462 5343 c2 -12 26 -24 78 -39 90 -27 110 -29 110 -10 0 10 -29 24
-84 40 -99 31 -109 31 -104 9z"/>
<path d="M10260 5286 c0 -19 92 -165 104 -166 17 0 -4 60 -41 119 -36 58 -63
78 -63 47z"/>
<path d="M7815 5240 c-11 -17 176 -82 192 -66 12 12 -11 25 -87 51 -81 28 -96
30 -105 15z"/>
<path d="M8182 5123 c2 -12 27 -24 78 -40 84 -26 114 -29 108 -11 -4 10 -157
68 -181 68 -5 0 -7 -8 -5 -17z"/>
<path d="M15535 5034 c-270 -41 -455 -247 -455 -508 0 -131 94 -348 266 -616
60 -95 234 -330 243 -330 38 0 295 368 407 584 105 204 137 337 110 464 -38
183 -175 332 -353 385 -57 17 -170 28 -218 21z m190 -59 c114 -30 201 -91 267
-188 72 -105 94 -222 67 -349 -23 -106 -135 -332 -252 -508 -53 -79 -207 -290
-212 -290 -6 0 -133 176 -193 265 -65 99 -181 301 -207 361 -64 149 -83 250
-65 340 37 181 167 321 341 368 72 19 181 20 254 1z"/>
<path d="M15492 4781 c-63 -22 -109 -63 -148 -134 -25 -45 -29 -62 -29 -132 0
-86 16 -129 71 -194 67 -80 202 -111 307 -71 117 44 178 126 185 249 6 100
-19 162 -90 226 -81 73 -188 93 -296 56z m219 -56 c139 -71 170 -243 65 -362
-52 -59 -104 -83 -184 -83 -72 0 -119 20 -169 72 -121 126 -61 346 108 397 48
14 123 4 180 -24z"/>
<path d="M8535 5021 c-11 -19 2 -27 72 -46 37 -10 75 -22 84 -26 11 -6 21 -4
28 5 15 17 13 18 -76 45 -40 12 -79 24 -87 27 -8 3 -17 1 -21 -5z"/>
<path d="M10465 4990 c-8 -14 85 -160 102 -160 23 0 15 24 -33 98 -45 71 -57
82 -69 62z"/>
<path d="M8891 4905 c3 -13 29 -27 89 -47 100 -33 100 -33 100 -10 0 15 -17
23 -80 41 -45 12 -88 25 -96 28 -12 4 -15 1 -13 -12z"/>
<path d="M9246 4795 c-3 -9 0 -18 7 -20 61 -23 163 -55 174 -55 7 0 13 6 13
14 0 9 -31 25 -82 42 -46 15 -88 29 -94 31 -6 2 -14 -3 -18 -12z"/>
<path d="M9600 4678 c0 -16 182 -80 194 -68 16 16 -5 29 -85 55 -90 28 -109
30 -109 13z"/>
<path d="M10650 4683 c0 -13 92 -163 100 -163 24 0 18 28 -21 95 -28 50 -49
75 -61 75 -10 0 -18 -3 -18 -7z"/>
<path d="M9962 4564 c2 -10 35 -26 91 -44 74 -24 89 -26 94 -14 7 19 11 17
-82 48 -93 30 -108 32 -103 10z"/>
<path d="M10317 4456 c-4 -9 1 -19 11 -25 32 -16 172 -54 178 -48 17 16 -11
35 -79 55 -42 12 -82 25 -90 28 -8 3 -17 -2 -20 -10z"/>
<path d="M10674 4349 c-3 -6 -2 -15 2 -19 10 -9 191 -70 209 -70 6 0 26 -16
45 -35 34 -35 60 -45 60 -24 0 27 -39 74 -88 105 -57 37 -77 43 -68 19 7 -19
10 -19 -68 10 -75 28 -82 29 -92 14z"/>
<path d="M14741 4167 c-8 -11 -7 -17 7 -29 23 -20 141 -88 153 -88 25 0 4 31
-43 62 -111 73 -104 70 -117 55z"/>
<path d="M15036 3991 c-7 -11 14 -28 97 -79 65 -40 87 -45 87 -19 -1 12 -150
107 -169 107 -5 0 -12 -4 -15 -9z"/>
</g>
</svg>
