<?xml version="1.0" standalone="no"?>
<!DOCTYPE svg PUBLIC "-//W3C//DTD SVG 20010904//EN"
 "http://www.w3.org/TR/2001/REC-SVG-20010904/DTD/svg10.dtd">
<svg version="1.0" xmlns="http://www.w3.org/2000/svg"
 width="2048.000000pt" height="2048.000000pt" viewBox="1000 -1000 2048.000000 2048.000000"
 preserveAspectRatio="xMidYMid meet">

<g transform="translate(0.000000,2048.000000) scale(0.200000,-0.200000)"
fill="#000000" stroke="none">
<path d="M13568 14377 c-15 -7 -65 -55 -111 -107 -54 -62 -90 -95 -103 -94
-10 1 -113 15 -227 33 -114 17 -219 28 -232 25 -39 -10 -75 -59 -75 -103 0
-56 34 -80 195 -141 77 -29 142 -54 144 -56 3 -3 -77 -97 -168 -196 -15 -16
-23 -16 -104 -3 -95 15 -119 11 -153 -26 -30 -34 -37 -73 -20 -113 17 -41 38
-53 129 -77 38 -10 70 -19 72 -21 2 -2 19 -39 37 -82 39 -92 70 -121 128 -120
45 2 65 14 86 57 14 26 14 39 -2 127 l-17 98 89 99 c48 54 91 99 94 101 4 1
35 -63 69 -142 35 -80 71 -152 80 -160 26 -23 76 -30 111 -16 33 13 60 55 60
90 0 11 -25 121 -55 245 -30 123 -55 226 -55 228 0 3 38 49 85 103 90 104 103
134 85 188 -18 56 -89 87 -142 63z"/>
<path d="M10223 14346 c-37 -32 -39 -93 -4 -130 23 -24 31 -26 113 -26 49 0
98 5 109 11 30 16 48 66 38 103 -15 54 -40 66 -140 66 -78 0 -91 -3 -116 -24z"/>
<path d="M10883 14340 c-30 -12 -56 -65 -48 -99 13 -59 73 -88 192 -90 49 -1
93 41 93 89 0 61 -31 89 -110 100 -78 12 -98 11 -127 0z"/>
<path d="M9702 14293 c-76 -18 -107 -53 -98 -113 6 -39 45 -80 77 -80 38 0
154 33 173 49 64 56 20 163 -66 160 -13 0 -51 -7 -86 -16z"/>
<path d="M11519 14215 c-25 -13 -49 -59 -49 -91 0 -7 11 -26 25 -42 26 -31
119 -62 185 -62 46 0 80 39 80 90 0 58 -29 83 -119 103 -87 20 -89 20 -122 2z"/>
<path d="M9105 14139 c-89 -36 -117 -80 -91 -142 8 -21 25 -38 46 -47 28 -12
40 -11 103 10 123 39 161 107 98 171 -36 35 -82 38 -156 8z"/>
<path d="M12135 14030 c-55 -21 -77 -87 -46 -136 23 -38 153 -97 192 -87 42
10 69 43 69 83 0 49 -21 75 -88 109 -69 34 -100 42 -127 31z"/>
<path d="M8590 13933 c-118 -43 -170 -88 -170 -148 0 -38 50 -85 90 -85 37 0
148 54 172 83 20 25 23 78 7 109 -8 16 -68 51 -81 47 -2 0 -10 -3 -18 -6z"/>
<path d="M8009 13611 c-67 -42 -92 -78 -85 -121 7 -45 47 -80 89 -80 49 0 143
62 157 104 14 44 4 81 -27 106 -36 28 -81 25 -134 -9z"/>
<path d="M12774 13242 c-64 -51 -58 -156 10 -188 70 -34 136 14 136 98 0 41
-5 54 -29 79 -34 34 -84 39 -117 11z"/>
<path d="M10385 13233 c-224 -18 -419 -57 -620 -124 -150 -51 -334 -132 -426
-189 -58 -36 -62 -36 -140 -10 -33 11 -115 30 -182 41 -169 29 -414 23 -562
-15 -558 -141 -959 -573 -1056 -1134 -37 -221 -21 -429 52 -647 42 -128 168
-396 262 -558 31 -54 57 -102 57 -106 0 -4 -38 -3 -85 2 -163 18 -161 20 -281
-323 -109 -313 -347 -1008 -499 -1460 -56 -168 -167 -491 -245 -719 -97 -283
-140 -421 -136 -437 16 -62 47 -78 356 -188 162 -57 376 -134 475 -169 99 -36
306 -110 460 -165 154 -55 305 -109 335 -120 325 -120 564 -202 589 -202 16 0
81 22 143 49 62 27 232 99 378 161 419 178 911 387 1355 577 226 97 415 176
420 176 6 0 96 -36 200 -81 105 -44 312 -131 460 -192 652 -270 863 -358 1070
-445 303 -127 265 -119 457 -101 89 9 345 32 568 51 223 20 517 47 654 59
l250 23 33 36 c42 47 43 82 2 184 -17 43 -60 152 -94 243 -35 91 -127 332
-205 535 -78 204 -231 604 -340 890 -200 522 -382 998 -467 1218 -25 65 -54
129 -65 142 -26 34 -61 40 -311 61 l-218 17 5 26 c30 153 30 514 0 721 -66
455 -256 891 -545 1249 -103 129 -322 340 -455 439 -364 271 -793 435 -1263
482 -95 9 -291 11 -386 3z m55 -674 l0 -461 -67 6 c-78 8 -268 35 -298 42 -12
3 -33 29 -53 67 -91 176 -275 388 -436 502 l-70 49 95 44 c201 94 506 178 724
200 50 5 93 10 98 11 4 0 7 -207 7 -460z m446 418 c226 -114 449 -385 581
-704 l22 -53 -69 -20 c-94 -28 -234 -56 -370 -74 -133 -18 -372 -36 -382 -29
-5 2 -8 209 -8 460 l0 456 88 -5 c67 -4 99 -11 138 -31z m587 -158 c176 -77
557 -322 557 -358 0 -5 -73 -46 -162 -90 l-163 -80 -14 32 c-67 147 -149 301
-217 404 -45 68 -79 123 -77 123 3 0 37 -14 76 -31z m-2497 -84 c326 -56 602
-242 792 -533 68 -105 112 -208 149 -348 25 -99 28 -125 28 -279 0 -146 -3
-182 -23 -252 -92 -339 -414 -906 -943 -1665 -105 -150 -194 -277 -199 -281
-4 -4 -84 104 -177 240 -637 926 -940 1478 -992 1803 -59 364 99 784 387 1033
163 142 347 235 547 277 113 24 309 26 431 5z m3306 -527 c86 -106 211 -285
264 -379 54 -97 137 -291 177 -414 61 -190 106 -441 107 -587 l0 -68 -435 0
-435 0 0 123 c0 312 -71 797 -162 1112 l-23 80 145 72 c80 39 174 89 210 112
36 22 68 40 71 41 4 0 40 -42 81 -92z m-688 -308 c82 -300 129 -620 143 -977
l6 -163 -541 0 -542 0 0 554 0 553 113 7 c263 16 524 56 702 109 44 13 83 21
86 18 4 -3 18 -49 33 -101z m-1281 -12 l127 -11 0 -559 0 -558 -250 0 c-137 0
-250 2 -250 4 0 1 25 57 56 122 68 145 128 320 156 457 26 129 28 323 4 455
-20 117 -21 116 7 108 12 -3 79 -11 150 -18z m-160 -1358 l287 0 0 -562 c0
-531 2 -565 19 -605 11 -23 30 -47 43 -54 15 -9 95 -16 238 -21 238 -8 412
-30 611 -79 122 -29 129 -32 124 -52 -4 -12 -39 -89 -80 -172 -113 -232 -223
-373 -423 -545 -46 -40 -59 -76 -46 -129 11 -43 62 -81 110 -81 18 0 94 15
168 34 417 107 792 323 1110 638 71 71 130 127 132 126 2 -3 47 -178 320
-1252 74 -291 141 -553 150 -583 9 -30 14 -56 12 -58 -1 -1 -97 37 -213 85
-115 48 -381 158 -590 244 -522 217 -841 350 -962 402 -56 24 -112 44 -124 44
-12 0 -126 -44 -253 -99 -557 -238 -936 -399 -1281 -544 -203 -85 -426 -180
-495 -211 -69 -31 -128 -56 -133 -56 -4 0 -5 15 -2 33 3 17 21 219 40 447 20
228 42 494 51 590 20 237 20 267 -3 299 -11 14 -38 33 -61 41 -37 13 -45 12
-76 -3 -19 -9 -42 -27 -50 -39 -10 -17 -23 -129 -45 -403 -43 -525 -83 -979
-87 -984 -2 -2 -68 19 -146 47 -1066 381 -1688 602 -1698 602 -6 0 -13 6 -16
13 -2 7 39 138 92 292 53 154 147 431 209 615 80 235 117 334 127 332 57 -15
75 -13 106 13 26 22 32 34 32 67 0 32 -7 47 -32 72 -18 18 -39 35 -46 37 -9 3
14 78 77 259 48 140 130 374 180 520 51 146 105 299 120 340 l27 75 45 -2 c24
-1 78 -4 119 -8 l76 -6 29 -47 c208 -335 716 -1075 763 -1112 30 -24 98 -27
129 -5 19 14 175 228 420 580 119 171 298 444 408 625 157 258 154 253 178
246 12 -3 151 -6 310 -6z m1586 -6 c2 -2 -4 -95 -12 -206 -23 -289 -59 -516
-117 -750 -23 -90 -50 -178 -55 -178 -1 0 -56 13 -121 30 -216 54 -538 100
-711 100 l-63 0 0 503 c0 277 2 506 5 509 6 5 1068 -2 1074 -8z m1086 -61
c-49 -479 -260 -962 -568 -1298 l-64 -70 -39 26 c-67 44 -206 116 -289 150
-44 18 -83 35 -87 38 -4 4 6 51 22 106 71 240 130 599 152 933 l12 182 434 0
434 0 -7 -67z m466 -398 l105 -7 61 -162 c34 -88 133 -348 221 -576 88 -228
215 -559 282 -735 67 -176 179 -471 250 -655 70 -184 162 -425 204 -534 42
-109 75 -200 74 -201 -3 -2 -1088 -100 -1233 -111 l-81 -7 -15 64 c-9 35 -53
208 -98 384 -45 176 -141 550 -212 830 -71 281 -153 598 -181 705 -47 181 -50
196 -36 220 8 14 35 57 58 95 98 158 222 444 269 620 12 44 24 85 26 91 2 8
32 7 102 -2 54 -7 145 -16 204 -19z m-1424 -1042 l157 -77 -55 -48 c-64 -58
-192 -146 -306 -211 -95 -54 -234 -119 -241 -113 -2 3 7 20 21 38 66 89 247
439 247 478 0 18 18 11 177 -67z"/>
<path d="M8664 12280 c-147 -27 -265 -92 -375 -208 -195 -206 -242 -490 -123
-739 103 -216 293 -353 531 -384 258 -33 539 110 670 342 114 201 111 468 -9
666 -83 138 -226 252 -371 298 -92 29 -237 40 -323 25z m231 -232 c67 -17 136
-58 197 -116 105 -100 153 -243 129 -383 -33 -179 -158 -320 -326 -363 -213
-56 -423 40 -522 240 -34 70 -38 85 -41 173 -3 77 1 107 17 153 82 234 309
357 546 296z"/>
<path d="M12373 11815 c-67 -29 -111 -145 -72 -191 25 -30 74 -45 108 -33 36
13 91 93 91 133 0 42 -26 83 -61 95 -18 6 -32 11 -33 11 -1 -1 -15 -7 -33 -15z"/>
<path d="M12092 11336 c-43 -37 -77 -106 -68 -140 11 -44 49 -76 92 -76 29 0
44 7 72 37 67 72 77 142 25 183 -35 27 -85 26 -121 -4z"/>
<path d="M10185 9449 c-85 -44 -105 -65 -105 -110 0 -21 3 -45 6 -54 8 -20 56
-45 87 -45 30 0 136 54 160 82 25 29 22 91 -5 122 -35 40 -73 41 -143 5z"/>
<path d="M9642 9203 c-78 -32 -100 -65 -83 -124 13 -43 43 -69 81 -69 47 0
149 41 170 67 30 38 27 93 -8 126 -36 34 -76 34 -160 0z"/>
<path d="M9115 9055 c-83 -22 -114 -79 -80 -144 23 -46 59 -55 146 -37 55 12
80 22 97 41 52 60 6 156 -75 154 -21 0 -60 -6 -88 -14z"/>
<path d="M7654 8920 c-56 -22 -73 -112 -31 -154 28 -28 160 -62 201 -52 36 9
68 62 61 101 -9 47 -40 72 -124 94 -87 24 -79 23 -107 11z"/>
<path d="M8267 8800 c-39 -31 -50 -65 -36 -107 15 -46 52 -63 139 -63 104 0
139 24 140 96 0 31 -6 46 -26 65 -22 21 -37 24 -107 27 -73 3 -85 1 -110 -18z"/>
<path d="M11395 10426 c-35 -15 -102 -86 -116 -123 -30 -79 52 -153 128 -116
43 20 110 96 118 133 9 40 -19 88 -60 106 -40 16 -33 16 -70 0z"/>
<path d="M10950 10024 c-49 -33 -99 -88 -105 -115 -10 -43 20 -96 61 -109 42
-14 84 4 149 64 38 36 45 48 45 80 0 76 -87 122 -150 80z"/>
<path d="M7105 12878 c-32 -17 -86 -71 -102 -102 -32 -61 13 -136 83 -136 38
0 85 36 129 99 22 33 26 47 21 75 -12 61 -78 94 -131 64z"/>
<path d="M12695 12761 c-30 -13 -43 -32 -65 -96 -34 -98 -24 -146 33 -170 38
-16 80 -10 101 14 9 10 28 51 42 91 21 61 23 77 14 101 -22 53 -79 80 -125 60z"/>
<path d="M6472 12025 c-26 -11 -40 -30 -68 -89 -32 -68 -35 -79 -25 -109 22
-64 76 -90 130 -63 35 18 101 137 101 181 0 31 -46 82 -80 89 -14 3 -40 -1
-58 -9z"/>
<path d="M6237 11469 c-33 -25 -71 -139 -62 -186 8 -46 50 -76 98 -70 21 3 44
11 52 17 18 15 55 136 55 176 -1 71 -86 109 -143 63z"/>
<path d="M6152 10915 c-42 -18 -62 -65 -62 -145 0 -92 26 -129 92 -130 24 0
46 8 63 23 23 19 27 32 32 98 7 92 0 124 -30 143 -36 23 -60 26 -95 11z"/>
<path d="M6183 10325 c-37 -26 -43 -63 -22 -145 11 -41 29 -84 41 -97 40 -43
127 -24 148 33 14 37 -23 173 -56 202 -29 26 -79 29 -111 7z"/>
<path d="M6411 9786 c-26 -15 -50 -51 -51 -79 0 -27 36 -93 77 -137 28 -32 42
-40 70 -40 47 0 72 16 89 55 17 41 10 62 -45 144 -51 74 -84 88 -140 57z"/>
<path d="M6783 9330 c-31 -12 -56 -55 -55 -93 0 -26 12 -43 63 -89 53 -50 67
-58 100 -58 49 0 88 33 95 81 5 30 1 41 -25 72 -37 42 -118 97 -140 96 -9 0
-26 -4 -38 -9z"/>
</g>
</svg>
