<?xml version="1.0" encoding="utf-8"?>
<!-- Svg Vector Icons : http://www.onlinewebfonts.com/icon -->
<!DOCTYPE svg PUBLIC "-//W3C//DTD SVG 1.1//EN" "http://www.w3.org/Graphics/SVG/1.1/DTD/svg11.dtd">
<svg version="1.1" xmlns="http://www.w3.org/2000/svg" xmlns:xlink="http://www.w3.org/1999/xlink" x="0px" y="0px" viewBox="0 0 256 256" enable-background="new 0 0 256 256" xml:space="preserve">
<metadata> Svg Vector Icons : http://www.onlinewebfonts.com/icon </metadata>
<g><g><g><path fill="#000000" d="M120.7,12.4C98.4,16,81.2,30.8,73.6,52.8c-9.7,28,4.9,68.2,30.8,85.6c8.7,5.8,13.6,7.3,23.6,7.3s14.8-1.6,23.7-7.4c19.6-13.1,33.3-40,33.5-65.5c0.1-14.8-3.4-25.5-12-37.7C161.8,19.1,139.5,9.4,120.7,12.4z"/><path fill="#000000" d="M71.6,142.8c-22.4,8.5-42.3,19.3-49.9,26.9c-3.1,3.1-4.2,5.2-6.8,13.1c-1.7,5.3-3.6,12.1-4.2,15.3c-0.9,5.1-0.9,6.2,0.4,9.8c10.3,26.8,90.8,43.4,161.2,33.2c38.6-5.6,67.3-18.8,72.8-33.4c1.7-4.6,1.2-8.8-3.1-22.7c-3.5-11-5.4-14.2-12.5-19.6c-7.2-5.5-31-17.5-46.1-23.1l-10.7-4l-4,3.8c-7.9,7.5-17.7,13.1-27.7,15.7c-7.9,2.1-22.5,1.5-30.2-1.2s-16.2-7.9-22.3-13.5c-2.8-2.6-5.2-4.7-5.4-4.7C82.9,138.5,77.8,140.4,71.6,142.8z"/></g></g></g>
</svg>